<svg width="28" height="28" viewBox="0 0 28 28" fill="none" xmlns="http://www.w3.org/2000/svg">
<path d="M5.51598 18.8265C3.71348 17.0228 2.81164 16.1221 2.47681 14.952C2.14081 13.7818 2.42781 12.5393 3.00181 10.0555L3.33198 8.62279C3.81381 6.53213 4.05531 5.48679 4.77048 4.77046C5.48564 4.05413 6.53215 3.81379 8.62281 3.33196L10.0555 3.00063C12.5405 2.42779 13.7818 2.14079 14.952 2.47563C16.1222 2.81163 17.0228 3.71346 18.8253 5.51596L20.9603 7.65096C24.0998 10.7893 25.6667 12.3573 25.6667 14.3056C25.6667 16.2551 24.0987 17.8231 20.9615 20.9603C17.8232 24.0986 16.2552 25.6666 14.3057 25.6666C12.3573 25.6666 10.7881 24.0986 7.65098 20.9615L5.51598 18.8265Z" stroke="white" stroke-width="1.5"/>
<path d="M11.6914 12.0088C12.6026 11.0976 12.6026 9.62019 11.6914 8.70897C10.7802 7.79775 9.30278 7.79775 8.39155 8.70897C7.48033 9.62019 7.48033 11.0976 8.39155 12.0088C9.30278 12.92 10.7802 12.92 11.6914 12.0088Z" stroke="white" stroke-width="1.5"/>
<path d="M17.0036 12.4742L17.6356 13.5564L13.3377 17.9218L12.709 16.8364L17.0036 12.4742ZM19.9358 19.6821L14.8987 19.2578L14.1651 18.5421L15.2858 17.4039C15.5535 17.1319 15.732 16.8607 15.8213 16.5901C15.9106 16.3152 15.9194 16.0496 15.8478 15.7934C15.7761 15.5328 15.6284 15.2924 15.4047 15.0721C15.0691 14.7418 14.7022 14.5749 14.3039 14.5715C13.9057 14.568 13.4927 14.7834 13.0652 15.2177L11.8474 16.4546L11.0836 15.1972L12.0487 14.2169C12.5928 13.6642 13.1286 13.2912 13.6559 13.0977C14.1832 12.8999 14.69 12.8633 15.1763 12.9879C15.6647 13.1104 16.1162 13.3756 16.5307 13.7837C16.8969 14.1443 17.1579 14.5329 17.3134 14.9495C17.469 15.3662 17.4975 15.8088 17.3989 16.2775C17.3002 16.7462 17.0527 17.2432 16.6564 17.7686L16.6307 17.821L21.2271 18.252L21.2863 18.3103L19.9358 19.6821ZM15.3652 10.8483L16.0039 11.9499L12.5058 15.4767L11.8803 14.3879L15.3652 10.8483Z" fill="white"/>
</svg>
