<svg width="40" height="40" viewBox="0 0 40 40" fill="none" xmlns="http://www.w3.org/2000/svg">
<path d="M21.3949 31.7692C22.3229 33.886 24.0537 35.3903 26.1738 35.9122C26.7209 36.0469 27.2871 36.1152 27.8565 36.1153H27.8569C31.7121 36.1153 35.2916 33.0744 36.5614 28.7204C37.3688 25.9519 37.1349 22.2932 35.2447 20.2554C34.2034 19.1328 33.8817 17.5795 34.4079 16.1861C34.5147 15.9033 34.6115 15.6139 34.6976 15.3185C35.3677 13.0212 35.2909 10.659 34.4814 8.66705C33.5773 6.44205 31.8038 4.85705 29.6157 4.31842C29.0684 4.18355 28.5023 4.11523 27.9329 4.11523H22.1984C20.6773 4.11523 19.7266 5.62805 20.4872 6.8383C20.7962 7.33005 20.8349 7.91973 20.6081 8.43823L17.3115 17.8737L21.3949 31.7692Z" fill="#D09080"/>
<path d="M32.792 21.2485C31.1796 20.2405 30.6262 18.3144 31.5027 16.7124C30.0033 19.3769 28.6781 17.3072 26.2619 16.7124C25.6902 16.5716 23.8547 19.9452 23.4001 19.6045C24.5738 20.6564 24.903 22.29 24.2089 23.6646C24.5642 23.0777 24.6 24.3479 25.3374 24.3484L25.9925 24.5463C27.5308 24.5463 29.0253 24.0622 30.3466 23.2036C31.0971 22.716 32.0528 20.8665 32.792 21.2485Z" fill="#C67D66"/>
<path d="M35.2445 20.2554C34.2032 19.1327 33.8814 17.5795 34.4076 16.186C34.5144 15.9032 34.6112 15.6139 34.6973 15.3185C35.3674 13.0211 35.2906 10.6589 34.4811 8.66699C33.577 6.44199 31.8035 4.85699 29.6154 4.31836C29.5271 4.29661 29.4382 4.27661 29.349 4.25836C30.3542 5.03686 31.1591 6.10274 31.6778 7.3793C32.4873 9.37124 32.564 11.7335 31.894 14.0308C31.8078 14.3262 31.7111 14.6156 31.6043 14.8984C31.0781 16.2918 31.3999 17.8451 32.4412 18.9677C34.3313 21.0054 34.5653 24.6641 33.7579 27.4326C32.4881 31.7866 28.9085 34.8275 25.0533 34.8275C25.0531 34.8275 25.0532 34.8275 25.0529 34.8275C24.5754 34.8275 24.1003 34.7794 23.6367 34.6845C24.3835 35.2629 25.2409 35.6827 26.1735 35.9122C26.7206 36.0469 27.2868 36.1152 27.8562 36.1153H27.8566C31.7118 36.1153 35.2913 33.0744 36.5611 28.7204C37.3686 25.9518 37.1346 22.2931 35.2445 20.2554Z" fill="#C67D66"/>
<path d="M32.3367 14.737C33.4525 10.9135 31.9531 7.22177 28.9877 6.4913C26.0223 5.76083 22.7138 8.26824 21.598 12.0918C20.4822 15.9153 21.9816 19.607 24.947 20.3375C27.9124 21.0679 31.2209 18.5605 32.3367 14.737Z" fill="#F1DDD5"/>
<path d="M33.6459 22.0418C32.9949 20.9547 31.4491 20.6543 30.3466 21.3707C29.0253 22.2292 27.5308 22.7134 25.9925 22.7134H25.9812C25.204 22.7128 24.491 23.1181 24.1542 23.7616C23.8724 24.3 23.6367 24.8802 23.4575 25.4945C22.3424 29.3177 23.8423 33.0088 26.8075 33.7387C29.7727 34.4687 33.0804 31.9611 34.1953 28.1379C34.8599 25.8593 34.5956 23.6276 33.6459 22.0418Z" fill="#F1DDD5"/>
<path d="M28.9817 6.49178C28.7314 6.43016 28.4787 6.39166 28.2251 6.37503C29.7599 7.92253 30.3446 10.65 29.5285 13.4483C28.5076 16.9488 25.6485 19.3464 22.8972 19.1659C23.4593 19.7327 24.1489 20.1412 24.9438 20.3368C27.909 21.0668 31.2167 18.5592 32.3317 14.736C33.4467 10.9128 31.9468 7.22172 28.9817 6.49178Z" fill="#E7C6BC"/>
<path d="M33.646 22.0418C33.1195 21.1625 32.0076 20.798 31.0184 21.0697C31.8228 22.6288 32.0138 24.7189 31.3922 26.8501C30.3714 30.3506 27.5123 32.7482 24.761 32.5678C25.3231 33.1345 26.0127 33.543 26.8076 33.7387C29.7728 34.4686 33.0805 31.9611 34.1954 28.1379C34.86 25.8593 34.5957 23.6276 33.646 22.0418Z" fill="#E7C6BC"/>
<path d="M30.8625 10.7236C30.7845 11.8187 30.56 13.0259 30.2133 14.2146C29.7962 15.6446 29.2249 16.9848 28.5612 18.0902C28.4654 18.2498 28.2857 18.34 28.1005 18.34C28.0146 18.34 27.9276 18.3206 27.8471 18.2798C27.5929 18.151 27.5005 17.8572 27.6408 17.6237C28.264 16.5856 28.8025 15.3203 29.1978 13.9646C29.527 12.8361 29.7399 11.6936 29.8136 10.6605C29.8325 10.3944 30.0832 10.1924 30.3724 10.2102C30.6621 10.2276 30.8815 10.4575 30.8625 10.7236ZM27.7161 10.8307C27.4361 10.7619 27.1475 10.9145 27.0723 11.1722L24.4448 20.1814C24.6061 20.2427 24.7724 20.2948 24.9436 20.3369C25.1148 20.3791 25.2872 20.4104 25.4602 20.4314L28.0877 11.4222C28.1629 11.1645 27.9965 10.8997 27.7161 10.8307ZM24.0835 12.6646C24.1291 12.6757 24.1748 12.6811 24.2199 12.6811C24.452 12.6811 24.6644 12.5388 24.7273 12.3231C25.7901 8.6788 27.5598 6.5818 28.5721 6.41168C27.9103 6.31493 27.2374 6.3723 26.581 6.56305C26.3993 6.75286 26.2122 6.97186 26.0201 7.22386C25.0864 8.4488 24.2667 10.1709 23.7119 12.0731C23.6367 12.3307 23.8031 12.5956 24.0835 12.6646Z" fill="#E7C6BC"/>
<path d="M26.0936 18.2604C25.6845 18.5236 25.2579 18.7348 24.8224 18.8877L24.4451 20.1813C24.6063 20.2427 24.7726 20.2947 24.9438 20.3369C25.1151 20.379 25.2875 20.4104 25.4604 20.4313L26.0936 18.2604Z" fill="#E2BCAF"/>
<path d="M30.8625 10.7236C30.8815 10.4575 30.662 10.2276 30.3724 10.2102C30.1665 10.1975 29.9801 10.2962 29.883 10.4502C29.9386 11.4035 29.8278 12.4211 29.5282 13.4483C29.3244 14.1472 29.0473 14.802 28.7124 15.4012C28.3995 16.2105 28.0373 16.9631 27.6407 17.6237C27.5005 17.8572 27.5928 18.1509 27.847 18.2797C27.9275 18.3205 28.0145 18.3399 28.1004 18.3399C28.2856 18.3399 28.4653 18.2497 28.5611 18.0902C29.2248 16.9847 29.7961 15.6445 30.2132 14.2145C30.5599 13.0259 30.7844 11.8187 30.8625 10.7236Z" fill="#E2BCAF"/>
<path d="M28.3294 6.48355C28.4143 6.44861 28.4954 6.42461 28.5722 6.41167C28.4568 6.3948 28.341 6.38261 28.2251 6.37498C28.2604 6.41061 28.2952 6.4468 28.3294 6.48355Z" fill="#E2BCAF"/>
<path d="M31.5699 27.9744C31.5249 27.9744 31.4791 27.9691 31.4335 27.9579C31.1531 27.8888 30.9867 27.6241 31.0618 27.3664C31.5667 25.6352 31.7869 23.9334 31.6816 22.5744C31.6274 21.8742 31.4928 21.3614 31.3262 21.0059C31.7184 20.9505 32.1183 20.9897 32.4839 21.1164C32.9894 22.7521 32.7572 25.2849 32.0772 27.6164C32.0144 27.8322 31.802 27.9744 31.5699 27.9744ZM28.345 30.333L29.8766 25.0816C29.9517 24.824 29.7853 24.5592 29.5049 24.4902C29.2246 24.4214 28.9363 24.5741 28.8612 24.8317L27.3296 30.0831C27.2545 30.3407 27.4209 30.6054 27.7013 30.6745C27.7469 30.6857 27.7926 30.6911 27.8377 30.6911C28.0697 30.6911 28.2821 30.5487 28.345 30.333ZM25.8376 27.045C25.5527 26.9941 25.2767 27.1649 25.2212 27.4267C24.8419 29.2154 24.7265 31.0016 24.8761 32.6799C25.2175 33.0013 25.6027 33.2664 26.0271 33.4641C25.7497 31.6331 25.8258 29.6267 26.253 27.6114C26.3085 27.3496 26.1225 27.096 25.8376 27.045Z" fill="#E7C6BC"/>
<path d="M31.3263 21.006C31.4929 21.3614 31.6275 21.8742 31.6817 22.5744C31.7019 22.8347 31.7101 23.1077 31.7066 23.3911C31.8338 24.4736 31.7408 25.6554 31.3923 26.8502C31.3069 27.1432 31.2085 27.4286 31.0984 27.7053C31.1631 27.8255 31.2816 27.9205 31.4336 27.9579C31.4792 27.9692 31.5249 27.9745 31.57 27.9745C31.8021 27.9745 32.0144 27.8322 32.0774 27.6164C32.7573 25.285 32.9896 22.7522 32.484 21.1165C32.1184 20.9898 31.7185 20.9506 31.3263 21.006Z" fill="#E2BCAF"/>
<path d="M25.9146 32.4966C25.5667 32.5613 25.2161 32.5879 24.8669 32.5734C24.8699 32.6089 24.8729 32.6444 24.876 32.6799C25.2174 33.0013 25.6026 33.2664 26.0269 33.4641C25.9789 33.1466 25.9414 32.8237 25.9146 32.4966Z" fill="#E2BCAF"/>
<path d="M21.4687 20.2554C20.4274 19.1327 20.1056 17.5795 20.6318 16.186C20.7386 15.9032 20.8354 15.6138 20.9215 15.3184C21.5916 13.021 21.5148 10.6589 20.7053 8.66692C19.8012 6.44192 18.0277 4.85692 15.8396 4.3183C15.2924 4.18355 14.7263 4.11523 14.1569 4.11523H8.42241C6.90132 4.11523 5.95063 5.62805 6.71118 6.8383C7.06594 7.40286 7.06472 8.09673 6.71417 8.66355C6.1822 9.52367 5.75254 10.4802 5.4522 11.5102C4.78212 13.8075 4.85886 16.1697 5.66832 18.1617C6.17696 19.4135 6.96084 20.4627 7.93887 21.2369C8.38881 21.5931 8.5101 22.182 8.23656 22.6664C8.21418 22.706 8.19234 22.7459 8.17119 22.7863C7.81874 23.4596 7.53098 24.1748 7.31601 24.912C6.64594 27.2094 6.72268 29.5715 7.53214 31.5635C8.43622 33.7884 10.2097 35.3735 12.3978 35.9121C12.9449 36.0468 13.5111 36.1151 14.0805 36.1152H14.0809C17.9361 36.1152 21.5156 33.0742 22.7854 28.7202C23.5928 25.9517 23.3588 22.2931 21.4687 20.2554Z" fill="#D09080"/>
<path d="M21.4686 20.2554C20.4273 19.1327 20.1055 17.5795 20.6317 16.186C20.7385 15.9032 20.8353 15.6138 20.9214 15.3184C21.5915 13.0211 21.5147 10.6589 20.7052 8.66693C19.8012 6.44193 18.0276 4.85693 15.8395 4.3183C15.7512 4.29655 15.6624 4.27655 15.5731 4.2583C16.5784 5.0368 17.3833 6.10268 17.902 7.37924C18.7114 9.37118 18.7882 11.7334 18.1182 14.0307C18.032 14.3262 17.9352 14.6156 17.8284 14.8983C17.3022 16.2918 17.624 17.8451 18.6653 18.9677C20.5554 21.0054 20.7894 24.6639 19.982 27.4326C18.7122 31.7866 15.1326 34.8275 11.2774 34.8275C11.2772 34.8275 11.2773 34.8275 11.277 34.8275C10.7996 34.8274 10.3244 34.7794 9.86084 34.6845C10.6076 35.2629 11.4649 35.6826 12.3977 35.9122C12.9447 36.0469 13.5109 36.1152 14.0803 36.1152H14.0807C17.9359 36.1152 21.5154 33.0743 22.7853 28.7203C23.5927 25.9517 23.3587 22.2931 21.4686 20.2554Z" fill="#C67D66"/>
<path d="M21.9203 24.3453C21.7718 23.1834 21.3611 21.8768 20.535 20.9862C19.2137 19.5617 18.8067 17.5809 19.4729 15.8169C20.3009 13.6239 20.4114 11.1657 19.5562 9.06098C18.7926 7.18179 17.3222 5.84979 15.5221 5.40661C15.2419 5.33779 14.9534 5.49048 14.8783 5.74804C14.8032 6.00567 14.9696 6.27048 15.25 6.33948C16.2887 6.59517 17.1987 7.22848 17.8699 8.13804L15.0808 8.82467C14.6407 7.88061 14.0241 7.12617 13.3004 6.67011C13.0611 6.51923 12.7339 6.57523 12.5697 6.79517C12.4055 7.01511 12.4664 7.31567 12.7058 7.46654C13.2292 7.79642 13.6973 8.36473 14.0519 9.07798L11.4153 9.72711C11.3313 9.08373 11.2257 8.55348 11.1341 8.16204C11.0731 7.90129 10.7932 7.73529 10.5098 7.79142C10.2259 7.84748 10.0454 8.10436 10.1063 8.36504C10.1846 8.69948 10.2998 9.26029 10.388 9.97998L9.36907 10.2308C9.08866 10.2999 8.92226 10.5646 8.99736 10.8222C9.06029 11.038 9.27267 11.1803 9.50471 11.1803C9.54975 11.1803 9.59553 11.1749 9.64111 11.1637L10.4797 10.9573C10.4888 11.0967 10.4964 11.2397 10.5023 11.386C10.5334 12.1627 10.5323 12.9917 10.5186 13.8312L7.28253 14.6278C7.28117 12.9573 7.76477 11.2002 8.69423 9.69729C8.83764 9.46542 8.74927 9.17061 8.49689 9.03886C8.24457 8.90711 7.92369 8.98823 7.78022 9.22017C6.12878 11.8904 5.75973 15.1656 6.81701 17.7676C7.23436 18.7947 7.87715 19.6817 8.67587 20.3325C9.01355 20.6077 9.25975 20.9497 9.40682 21.3223C9.40947 21.3297 9.41226 21.3369 9.41532 21.3441C9.64839 21.9525 9.61805 22.6397 9.29043 23.2479L9.27621 23.2747C8.95675 23.885 8.69573 24.534 8.50042 25.2037C7.74484 27.7944 8.03491 30.4016 9.29634 32.3569C9.39458 32.5092 9.56947 32.5937 9.749 32.5937C9.84009 32.5937 9.9324 32.5719 10.0165 32.5262C10.2662 32.3902 10.3487 32.094 10.2007 31.8645C9.39709 30.6189 9.04213 29.0613 9.15961 27.4144H12.2787C12.1534 28.1402 12.0638 28.8459 12.0108 29.5145H10.6595C10.3693 29.5145 10.134 29.7307 10.134 29.9974C10.134 30.264 10.3693 30.4802 10.6595 30.4802H11.959C11.9402 31.196 11.9697 31.8524 12.0485 32.4241C12.0821 32.668 12.3085 32.8464 12.5693 32.8464C12.5913 32.8464 12.6136 32.845 12.636 32.8425C12.924 32.809 13.1279 32.5673 13.0914 32.3027C13.0179 31.7702 12.9912 31.1547 13.0098 30.4803H15.6675C15.4261 31.1996 15.1695 31.8587 14.9074 32.4279C14.7943 32.6735 14.9194 32.9569 15.1867 33.0608C15.2535 33.0868 15.323 33.0991 15.3913 33.0991C15.5961 33.0991 15.7908 32.9884 15.8756 32.8042C16.1852 32.1319 16.4866 31.3424 16.7655 30.4803H19.5733C19.0974 31.2615 18.5164 31.9533 17.8561 32.5142C17.643 32.6952 17.63 33.0007 17.827 33.1965C17.9306 33.2995 18.0716 33.3516 18.2131 33.3516C18.3407 33.3516 18.4687 33.3091 18.5697 33.2233C19.9692 32.0344 21.0455 30.3317 21.6005 28.4287C21.978 27.1342 22.0916 25.684 21.9203 24.3453ZM19.7349 21.6127C20.1335 22.0424 20.4494 22.6524 20.6584 23.3827H18.084C17.9978 22.3794 17.6305 21.4586 17.0356 20.7635C17.2222 20.6711 17.3368 20.4797 17.3075 20.2752C17.2695 20.0108 17.0051 19.8245 16.7177 19.8594L16.2901 19.9112C15.7891 19.212 15.4828 18.386 15.4058 17.5114L18.1501 16.8357C17.9407 18.5382 18.4999 20.2811 19.7349 21.6127ZM16.752 26.215C16.7381 26.2932 16.7241 26.371 16.7098 26.4485H13.5333C13.5718 26.2685 13.6118 26.0895 13.6534 25.9119C13.7784 25.3775 13.9173 24.8529 14.0675 24.3484H17.0211C17.0211 24.3485 17.021 24.3487 17.021 24.3489C16.954 24.9555 16.8635 25.5832 16.752 26.215ZM14.3069 23.3827C14.4036 22.6167 14.2662 21.844 13.93 21.1707L15.8148 20.9428C15.8895 21.0257 15.9667 21.1066 16.0466 21.1855C16.5856 21.7182 16.9354 22.5131 17.0279 23.3827H14.3069ZM13.0966 20.0697C12.5888 19.6109 12.1829 19.0272 11.9085 18.3722L14.3761 17.7648C14.4728 18.5789 14.7387 19.3554 15.1538 20.0486L13.3036 20.2724C13.2375 20.2023 13.1685 20.1347 13.0966 20.0697ZM11.6051 17.3727C11.5383 17.0312 11.5078 16.677 11.5146 16.3192L11.5147 16.3117C11.5179 16.1226 11.521 15.9301 11.526 15.7367L11.5319 15.5093C11.54 15.1999 11.5481 14.888 11.5552 14.5759L14.7758 13.783C14.7421 14.2625 14.6822 14.7493 14.596 15.236C14.5549 15.4685 14.5117 15.6884 14.4677 15.889C14.4031 16.1809 14.3621 16.4764 14.3449 16.7725L11.6196 17.4435C11.6147 17.4199 11.6098 17.3963 11.6051 17.3727ZM18.3966 9.00829C18.4588 9.13504 18.5171 9.26523 18.5714 9.39879C19.2165 10.9864 19.2697 12.8964 18.7213 14.7768C18.6501 15.021 18.5688 15.2644 18.4797 15.5002C18.4449 15.5925 18.4126 15.6853 18.3826 15.7785L15.4239 16.5069C15.442 16.3642 15.4666 16.2219 15.4979 16.0805C15.5447 15.8674 15.5903 15.6354 15.6336 15.391C15.7458 14.7572 15.8167 14.1308 15.8466 13.5194L18.0017 12.9888C18.2821 12.9197 18.4485 12.655 18.3734 12.3974C18.2982 12.1397 18.0099 11.987 17.7296 12.0559L15.8583 12.5165C15.8366 11.6984 15.7365 10.9169 15.5583 10.1925C15.5204 10.0381 15.4782 9.88648 15.4321 9.73798L18.3966 9.00829ZM11.5528 11.3505C11.5438 11.1269 11.5311 10.9106 11.5154 10.7023L14.4164 9.98817C14.4592 10.1244 14.4982 10.2637 14.533 10.4055C14.7102 11.1261 14.8022 11.9304 14.8082 12.7752L11.5738 13.5714C11.5835 12.8119 11.5814 12.0622 11.5528 11.3505ZM7.80185 17.4299C7.57096 16.8617 7.41831 16.2493 7.34144 15.6132L10.4976 14.8362C10.4923 15.0536 10.4866 15.2705 10.481 15.4864L10.4751 15.7139C10.4701 15.91 10.4668 16.1053 10.4636 16.2971L10.4635 16.3035C10.4555 16.7231 10.4915 17.1404 10.5705 17.5437C10.5804 17.594 10.5909 17.6441 10.602 17.694L9.65662 17.9268C9.37621 17.9959 9.20981 18.2606 9.28492 18.5182C9.34784 18.734 9.56022 18.8763 9.79227 18.8763C9.8373 18.8763 9.88308 18.8709 9.92866 18.8597L10.8886 18.6234C11.1568 19.2953 11.5426 19.9099 12.0237 20.4273L10.2323 20.644C10.0255 20.2594 9.7375 19.9069 9.37328 19.6102C8.70274 19.0635 8.15933 18.3097 7.80185 17.4299ZM9.5158 25.4536C9.69424 24.8418 9.93233 24.2495 10.2222 23.6957L10.2338 23.6738C10.5923 23.0084 10.6946 22.274 10.5636 21.5779L12.8231 21.3046C13.2095 21.903 13.368 22.6488 13.2465 23.3827H11.4838C11.1935 23.3827 10.9582 23.5989 10.9582 23.8655C10.9582 24.1322 11.1935 24.3484 11.4838 24.3484H12.9791C12.8522 24.7909 12.7338 25.2465 12.6256 25.709C12.5685 25.9534 12.5141 26.2004 12.4626 26.4485H9.28124C9.34077 26.1181 9.41886 25.7859 9.5158 25.4536ZM13.0643 29.5144C13.1192 28.854 13.2115 28.1537 13.3404 27.4314C13.3414 27.4257 13.3424 27.42 13.3434 27.4143H16.5145C16.4912 27.5197 16.4675 27.624 16.4433 27.727C16.2996 28.3411 16.141 28.941 15.9715 29.5144H13.0643ZM17.0596 29.5144C17.2065 29.0016 17.3446 28.4708 17.4711 27.93C17.5107 27.7613 17.5492 27.5892 17.5865 27.4143H19.6275C19.9178 27.4143 20.1531 27.1981 20.1531 26.9314C20.1531 26.6647 19.9178 26.4485 19.6275 26.4485H17.7756C17.7803 26.4222 17.785 26.396 17.7896 26.3696C17.9054 25.7143 17.9991 25.0627 18.0683 24.4329C18.0684 24.4319 18.0686 24.4309 18.0686 24.4299C18.0702 24.4191 18.0716 24.4072 18.0726 24.3942C18.0743 24.3789 18.0759 24.3636 18.0775 24.3485H20.8616C20.8667 24.3848 20.8716 24.4213 20.8763 24.458C21.0324 25.6782 20.929 26.9995 20.5851 28.1787C20.4508 28.6392 20.2835 29.0862 20.0867 29.5145H17.0596V29.5144Z" fill="#C67D66"/>
<path d="M20.5353 20.9862C19.214 19.5617 18.807 17.5809 19.4732 15.8169C20.3012 13.6239 20.4117 11.1657 19.5565 9.06098C19.0662 7.85448 18.2847 6.8736 17.3115 6.2086C17.5364 6.57498 17.7343 6.96604 17.9022 7.37917C18.114 7.90029 18.2755 8.44673 18.3868 9.01079L18.3969 9.00829C18.4591 9.13504 18.5174 9.26523 18.5717 9.39879C19.2168 10.9864 19.27 12.8964 18.7216 14.7768C18.6504 15.021 18.5691 15.2644 18.48 15.5002C18.4452 15.5925 18.4129 15.6853 18.383 15.7785L17.5902 15.9736C17.5657 16.3042 17.5844 16.6355 17.6447 16.9601L18.1503 16.8356C18.0904 17.3225 18.0934 17.8127 18.1571 18.2957C18.3008 18.5322 18.4705 18.7574 18.6655 18.9676C19.4865 19.8527 19.9951 21.0437 20.2415 22.3347C20.408 22.6445 20.5482 22.9968 20.6587 23.3825H20.3835C20.4101 23.7028 20.4223 24.0257 20.4208 24.3484H20.8618C20.867 24.3847 20.8719 24.4212 20.8766 24.4579C21.0326 25.6781 20.9292 26.9994 20.5853 28.1786C20.4511 28.639 20.2838 29.0861 20.087 29.5144H19.1528C18.9804 29.8487 18.7934 30.171 18.5929 30.4802H19.5736C19.0977 31.2614 18.5166 31.9532 17.8564 32.514C17.6432 32.6951 17.6302 33.0006 17.8272 33.1964C17.9308 33.2994 18.0719 33.3515 18.2133 33.3515C18.3409 33.3515 18.4689 33.309 18.57 33.2232C19.9694 32.0343 21.0458 30.3315 21.6007 28.4285C21.9782 27.1341 22.0918 25.6839 21.9206 24.3452C21.7721 23.1834 21.3614 21.8768 20.5353 20.9862Z" fill="#BE694F"/>
<path d="M20.1535 26.9314C20.1535 26.8939 20.1488 26.8574 20.14 26.8224C20.1085 26.9611 20.0745 27.0982 20.0381 27.2333C20.1103 27.1505 20.1535 27.0456 20.1535 26.9314Z" fill="#BE694F"/>
</svg>
