<svg width="27" height="27" viewBox="0 0 27 27" fill="none" xmlns="http://www.w3.org/2000/svg">
<path d="M25.4436 26.0247L26.1288 25.3333C26.2187 25.2228 26.2621 25.0817 26.2499 24.9397C26.2377 24.7978 26.1708 24.6661 26.0635 24.5725L24.3706 22.1462L22.3149 24.226L24.6926 25.9573C24.7373 26.0112 24.7923 26.0558 24.8543 26.0884C24.9164 26.1211 24.9843 26.1411 25.0541 26.1474C25.1239 26.1536 25.1942 26.146 25.2611 26.125C25.328 26.1039 25.39 26.0698 25.4436 26.0247Z" fill="#51662F"/>
<path d="M24.3779 22.1545C24.3406 22.6939 24.1201 23.2042 23.7528 23.601C23.3643 23.9721 22.8586 24.1961 22.3227 24.2343C20.7169 24.4182 18.3388 23.5438 15.6992 21.8603C13.4056 20.3601 11.2844 18.6117 9.37406 16.6466C9.28826 16.5608 9.20654 16.4749 9.12482 16.3891C8.71213 15.9642 8.3117 15.5392 7.93578 15.1102H7.9317C7.80094 14.9631 7.67019 14.8119 7.54352 14.6648L5.94589 12.7035C5.62718 12.2827 5.32481 11.8618 5.03879 11.4491C4.54029 10.7259 4.099 10.0218 3.71492 9.33666C3.67406 9.26311 3.62911 9.18548 3.59234 9.11193C3.36352 8.70741 3.15922 8.3029 2.97535 7.91881C2.71355 7.36992 2.487 6.8049 2.29707 6.2272C2.2276 6.01064 2.16631 5.79816 2.1132 5.58978C1.70868 4.02892 1.81492 2.78676 2.53406 2.06354C3.25728 1.32805 4.51578 1.22999 6.09298 1.66311C6.85296 1.88382 7.59254 2.16954 8.30352 2.51709C8.77342 2.7459 9.25965 3.01149 9.76632 3.3016C10.2771 3.60397 10.8042 3.93902 11.3394 4.31085C11.4743 4.39666 11.6091 4.49064 11.744 4.5887C12.1485 4.87472 12.5652 5.18526 12.9861 5.50806C13.0515 5.56117 13.1169 5.61021 13.1822 5.66333C13.6154 6.00655 14.0526 6.37021 14.4939 6.75429C14.5057 6.76264 14.5167 6.77223 14.5265 6.7829C14.69 6.92182 14.8493 7.06483 15.0128 7.21193C15.2498 7.42032 15.4827 7.63688 15.7197 7.85752C16.1201 8.22935 16.5164 8.61752 16.9087 9.01795C19.0786 11.1814 20.965 13.6116 22.5229 16.2502C23.8672 18.6038 24.5455 20.6958 24.3779 22.1545Z" fill="#F4CD0B"/>
<path opacity="0.4" d="M9.22375 15.7246C9.66218 16.1695 10.0516 15.9599 10.4197 15.5873C10.7879 15.2146 10.9954 14.8207 10.557 14.3758C10.2522 14.0665 9.53796 13.9937 9.13058 13.9782C9.09059 13.9754 9.05047 13.9813 9.01297 13.9955C8.97547 14.0096 8.94147 14.0317 8.9133 14.0603C8.88513 14.0888 8.86345 14.123 8.84976 14.1607C8.83606 14.1984 8.83066 14.2386 8.83394 14.2785C8.84865 14.6916 8.92056 15.4153 9.22375 15.7246Z" fill="#FFEE47"/>
<path opacity="0.4" d="M14.7055 10.178C15.1439 10.6229 15.5329 10.4129 15.9011 10.0407C16.2692 9.66845 16.4768 9.27415 16.0384 8.82877C15.7336 8.51987 15.0193 8.44714 14.6119 8.43161C14.5719 8.42876 14.5318 8.4346 14.4943 8.44874C14.4567 8.46287 14.4227 8.48497 14.3945 8.5135C14.3663 8.54204 14.3446 8.57634 14.331 8.61404C14.3173 8.65175 14.312 8.69197 14.3153 8.73194C14.33 9.14462 14.4007 9.86867 14.7055 10.178Z" fill="#FFEE47"/>
<path d="M7.76747 17.5515C7.75399 17.5654 9.7545 19.1308 10.9954 20.0918L11.0036 20.1C11.4784 20.471 11.8412 20.7492 11.9434 20.8187C13.3772 21.797 14.8608 22.7003 16.3882 23.5249C18.7548 24.8439 22.4477 26.3442 24.4376 24.5509C26.4149 22.7735 25.194 19.1455 23.9927 16.7384C23.1772 15.028 22.2681 13.3638 21.2693 11.7535C20.835 11.0764 20.3753 10.4083 19.8911 9.75702C19.3008 8.95643 18.6776 8.17559 18.0214 7.4145C15.6362 4.63871 12.9357 2.15042 9.97433 0C11.2102 0.960532 12.2657 2.1329 13.0916 3.4625C14.0162 4.99149 14.4101 6.71089 15.1399 8.31261C15.6062 9.33199 16.1637 10.3071 16.8058 11.2259C17.567 12.3251 18.3736 13.345 18.8659 14.5671C19.3113 15.7069 19.6355 16.8905 19.8331 18.0982C19.9087 18.535 19.476 18.7802 19.0817 18.5371C17.3828 17.5546 15.5349 16.8559 13.6109 16.4687C11.6737 16.0303 9.78351 15.8338 7.86839 15.084C6.0705 14.3615 4.36873 13.4198 2.80172 12.2801C1.89593 11.6438 1.04262 10.9359 0.25 10.1632C2.58372 12.7952 5.09546 15.2637 7.76747 17.5515Z" fill="#617F39"/>
<path opacity="0.4" d="M11.8184 15.5804C12.2568 16.0254 12.6462 15.8158 13.014 15.4431C13.3817 15.0705 13.5897 14.6766 13.1513 14.2316C12.8468 13.9223 12.1326 13.85 11.7252 13.8345C11.6852 13.8316 11.6451 13.8373 11.6076 13.8514C11.57 13.8655 11.536 13.8876 11.5078 13.9161C11.4796 13.9446 11.4579 13.9789 11.4443 14.0165C11.4306 14.0542 11.4252 14.0944 11.4286 14.1344C11.4433 14.5463 11.514 15.2711 11.8184 15.5804Z" fill="#FFEE47"/>
<path opacity="0.4" d="M14.5592 12.8072C14.9977 13.2521 15.3867 13.0421 15.7548 12.6699C16.123 12.2976 16.3305 11.9029 15.8921 11.458C15.5873 11.1491 14.8735 11.0763 14.4661 11.0608C14.4261 11.0579 14.3859 11.0637 14.3484 11.0778C14.3109 11.0918 14.2768 11.1139 14.2486 11.1424C14.2205 11.1709 14.1988 11.2052 14.1851 11.2429C14.1714 11.2806 14.1661 11.3208 14.1694 11.3607C14.1841 11.7738 14.2544 12.4978 14.5592 12.8072Z" fill="#FFEE47"/>
<path opacity="0.4" d="M15.707 14.0481C15.2686 13.6027 14.8792 13.8127 14.5115 14.1849C14.1437 14.5572 13.9358 14.9519 14.3742 15.3969C14.6786 15.7062 15.3928 15.7785 15.8002 15.794C15.8402 15.7969 15.8803 15.791 15.9178 15.7769C15.9553 15.7628 15.9893 15.7407 16.0175 15.7123C16.0457 15.6838 16.0673 15.6495 16.081 15.6119C16.0947 15.5742 16.1001 15.534 16.0969 15.4941C16.0821 15.081 16.0115 14.357 15.707 14.0481Z" fill="#FFEE47"/>
<path opacity="0.15" d="M5.04168 15.0827C7.06876 15.8767 9.79332 16.6841 11.6251 16.8491C14.6275 17.1188 15.4439 17.9475 17.3529 18.4966C18.3395 18.8172 19.2579 19.3187 20.0611 19.9754C20.4288 20.2614 20.8942 20.0787 20.8754 19.6485C20.8074 17.801 20.5006 15.9701 19.9626 14.2014C18.9505 11.0903 16.6983 10.8876 15.2126 6.60138C14.7722 5.34356 14.2386 4.12036 13.6162 2.94194C12.2045 1.68017 10.928 0.697485 9.97433 0C11.337 1.07748 13.1312 2.88473 13.9884 5.35923C15.4741 9.64506 16.2905 10.4737 17.9878 12.8914C19.0049 14.3419 19.5548 16.5582 19.8302 18.1044C19.8508 18.1962 19.8425 18.2921 19.8064 18.379C19.7703 18.4659 19.7082 18.5395 19.6286 18.5897C19.5491 18.64 19.4559 18.6643 19.3619 18.6595C19.2679 18.6547 19.1778 18.6209 19.1037 18.5628C17.7725 17.7591 15.3613 16.6555 11.5597 16.0879C9.71507 15.795 7.92745 15.216 6.26136 14.3718C4.05689 13.2799 2.0302 11.861 0.25 10.1632C0.25 10.1632 2.18718 12.3807 5.04168 15.0827Z" fill="white"/>
<path opacity="0.4" d="M3.87354 2.03602C3.43511 1.59105 3.04612 1.80107 2.67797 2.17331C2.30982 2.54554 2.10225 2.94189 2.54068 3.38522C2.84509 3.69413 3.55933 3.76686 3.96671 3.78238C4.00666 3.78518 4.04675 3.7793 4.08422 3.76513C4.12169 3.75096 4.15564 3.72885 4.18375 3.70032C4.21186 3.67178 4.23346 3.6375 4.24706 3.59982C4.26066 3.56215 4.26594 3.52197 4.26253 3.48206C4.24864 3.06937 4.17836 2.34533 3.87354 2.03602Z" fill="#FFEE76"/>
<path opacity="0.4" d="M4.83129 3.62717C5.26972 4.07213 5.65912 3.86252 6.02727 3.48988C6.39542 3.11723 6.60299 2.72334 6.16456 2.27837C5.85974 1.96906 5.1455 1.89633 4.73813 1.8808C4.69814 1.87802 4.65802 1.88391 4.62052 1.89807C4.58301 1.91223 4.54901 1.93432 4.52084 1.96284C4.49267 1.99136 4.471 2.02563 4.4573 2.06331C4.4436 2.10098 4.43821 2.14117 4.44148 2.18112C4.45619 2.59422 4.52688 3.31785 4.83129 3.62717Z" fill="#FFEE76"/>
<path opacity="0.4" d="M2.77607 5.70731C3.2145 6.15228 3.60349 5.94226 3.97164 5.57002C4.33979 5.19778 4.54736 4.80348 4.10893 4.35851C3.80411 4.0492 3.09028 3.97647 2.68291 3.96094C2.64288 3.95802 2.6027 3.96381 2.56514 3.97792C2.52757 3.99203 2.49351 4.01413 2.46531 4.04268C2.43711 4.07123 2.41544 4.10556 2.40179 4.14329C2.38814 4.18103 2.38284 4.22128 2.38626 4.26127C2.40097 4.67395 2.47125 5.398 2.77607 5.70731Z" fill="#FFEE76"/>
<path opacity="0.4" d="M5.02786 5.90954C5.46629 6.35491 5.85528 6.14489 6.22344 5.77265C6.59159 5.40042 6.79916 5.00571 6.36073 4.56074C6.05632 4.25183 5.34208 4.1791 4.9347 4.16358C4.89472 4.16066 4.85457 4.16645 4.81704 4.18053C4.7795 4.19462 4.74547 4.21668 4.71727 4.24518C4.68908 4.27368 4.6674 4.30796 4.65372 4.34565C4.64005 4.38334 4.6347 4.42354 4.63806 4.46349C4.65277 4.87659 4.72305 5.60063 5.02786 5.90954Z" fill="#FFEE76"/>
<path opacity="0.4" d="M4.60904 6.25488C4.17061 5.80992 3.78121 6.01953 3.41306 6.39217C3.04491 6.76482 2.83775 7.15871 3.27618 7.60368C3.58059 7.91299 4.29482 7.98532 4.7022 8.00084C4.74217 8.00369 4.78228 7.99786 4.81979 7.98374C4.85729 7.96963 4.8913 7.94757 4.91947 7.91908C4.94765 7.8906 4.96934 7.85635 4.98304 7.81869C4.99674 7.78104 5.00213 7.74086 4.99885 7.70093C4.98414 7.28783 4.91345 6.5642 4.60904 6.25488Z" fill="#FFEE76"/>
<path opacity="0.4" d="M8.03476 2.78773C7.59633 2.34276 7.20734 2.55278 6.83919 2.92502C6.47104 3.29725 6.26469 3.69155 6.7019 4.13652C7.00631 4.44583 7.72054 4.51857 8.12792 4.53409C8.16794 4.53702 8.20812 4.53122 8.24569 4.51711C8.28326 4.503 8.31732 4.48091 8.34552 4.45236C8.37372 4.42381 8.39539 4.38948 8.40904 4.35174C8.42268 4.314 8.42798 4.27375 8.42457 4.23377C8.40986 3.82108 8.33958 3.09704 8.03476 2.78773Z" fill="#FFEE76"/>
<path opacity="0.4" d="M7.68781 6.52665C8.12624 6.97161 8.51523 6.762 8.88338 6.38936C9.25153 6.01671 9.4591 5.62282 9.02067 5.17785C8.71626 4.86854 8.00203 4.79581 7.59465 4.78028C7.55463 4.77735 7.51445 4.78315 7.47688 4.79726C7.43931 4.81137 7.40525 4.83346 7.37705 4.86201C7.34885 4.89056 7.32718 4.92489 7.31353 4.96263C7.29989 5.00037 7.29459 5.04062 7.298 5.0806C7.31271 5.4937 7.38299 6.21733 7.68781 6.52665Z" fill="#FFEE76"/>
<path opacity="0.4" d="M5.63211 8.60669C6.07054 9.05166 6.45994 8.84164 6.82809 8.4694C7.19624 8.09716 7.4034 7.70286 6.96497 7.25748C6.66056 6.94858 5.94632 6.87585 5.53895 6.86032C5.49894 6.85747 5.45879 6.86331 5.42126 6.87745C5.38372 6.89158 5.34969 6.91368 5.32151 6.94221C5.29332 6.97075 5.27165 7.00505 5.25798 7.04275C5.2443 7.08046 5.23896 7.12068 5.2423 7.16065C5.25701 7.57333 5.3277 8.29738 5.63211 8.60669Z" fill="#FFEE76"/>
<path opacity="0.4" d="M7.88444 8.80892C8.32287 9.25388 8.71186 9.04427 9.08001 8.67163C9.44816 8.29898 9.65573 7.90509 9.2173 7.46012C8.91248 7.15081 8.19824 7.07848 7.79087 7.06296C7.7509 7.06011 7.71078 7.06595 7.67328 7.08006C7.63578 7.09417 7.60177 7.11623 7.57359 7.14472C7.54541 7.17321 7.52373 7.20745 7.51003 7.24511C7.49633 7.28276 7.49094 7.32294 7.49422 7.36287C7.50893 7.77597 7.57962 8.49879 7.88444 8.80892Z" fill="#FFEE76"/>
<path opacity="0.4" d="M10.4785 8.66528C10.917 9.11025 11.3064 8.90023 11.6745 8.52799C12.0427 8.15576 12.2498 7.76146 11.8114 7.31608C11.507 7.00717 10.7928 6.93444 10.3854 6.91892C10.3454 6.91606 10.3052 6.92191 10.2677 6.93604C10.2302 6.95018 10.1961 6.97227 10.1679 7.00081C10.1398 7.02934 10.1181 7.06364 10.1044 7.10135C10.0907 7.13905 10.0854 7.17927 10.0887 7.21924C10.1055 7.63193 10.1741 8.35597 10.4785 8.66528Z" fill="#FFEE47"/>
<path opacity="0.4" d="M7.73807 11.4383C8.1765 11.8833 8.56549 11.6737 8.93364 11.3011C9.30179 10.9284 9.50936 10.5345 9.07093 10.0895C8.76611 9.78023 8.05228 9.70791 7.64491 9.69239C7.60492 9.68947 7.56478 9.69525 7.52724 9.70934C7.48971 9.72343 7.45567 9.74548 7.42748 9.77399C7.39928 9.80249 7.3776 9.83677 7.36393 9.87446C7.35025 9.91214 7.34491 9.95235 7.34826 9.9923C7.36297 10.4054 7.43325 11.129 7.73807 11.4383Z" fill="#FFEE47"/>
<path opacity="0.4" d="M9.92451 10.8802C10.3629 11.3251 10.7519 11.1155 11.1201 10.7429C11.4882 10.3702 11.6958 9.97633 11.2574 9.53136C10.9525 9.22205 10.2387 9.14932 9.83134 9.13379C9.79132 9.13087 9.75114 9.13666 9.71357 9.15078C9.67601 9.16489 9.64195 9.18698 9.61375 9.21553C9.58555 9.24408 9.56388 9.27841 9.55023 9.31615C9.53658 9.35388 9.53128 9.39413 9.5347 9.43412C9.54941 9.84721 9.61969 10.5708 9.92451 10.8802Z" fill="#FFEE47"/>
<path opacity="0.4" d="M13.4049 8.93323C12.9665 8.48827 12.5771 8.69829 12.209 9.07052C11.8408 9.44276 11.6336 9.83706 12.0721 10.2824C12.3765 10.5913 13.0907 10.6641 13.4981 10.6796C13.5381 10.6825 13.5783 10.6766 13.6158 10.6625C13.6533 10.6483 13.6874 10.6262 13.7155 10.5977C13.7437 10.5692 13.7654 10.5349 13.7791 10.4972C13.7927 10.4595 13.7981 10.4192 13.7947 10.3793C13.78 9.96659 13.7093 9.24255 13.4049 8.93323Z" fill="#FFEE47"/>
<path opacity="0.4" d="M12.8505 11.1487C12.412 10.7037 12.0231 10.9133 11.6549 11.286C11.2868 11.6586 11.0792 12.0525 11.5176 12.4975C11.8224 12.8068 12.5363 12.8791 12.9436 12.8946C12.9836 12.8976 13.0238 12.8918 13.0613 12.8777C13.0988 12.8636 13.1329 12.8415 13.1611 12.813C13.1893 12.7845 13.2109 12.7503 13.2246 12.7126C13.2383 12.6749 13.2436 12.6347 13.2403 12.5947C13.2256 12.1816 13.1553 11.4576 12.8505 11.1487Z" fill="#FFEE47"/>
<path opacity="0.4" d="M10.6641 11.7068C10.2256 11.2618 9.83665 11.4714 9.4685 11.8441C9.10035 12.2167 8.89278 12.6106 9.33121 13.0556C9.63603 13.3649 10.3499 13.4376 10.7572 13.4532C10.7973 13.4561 10.8374 13.4503 10.875 13.4362C10.9126 13.4221 10.9466 13.4 10.9748 13.3714C11.003 13.3429 11.0247 13.3085 11.0383 13.2708C11.052 13.2331 11.0573 13.1928 11.0539 13.1528C11.0392 12.7401 10.9689 12.0161 10.6641 11.7068Z" fill="#FFEE47"/>
<path opacity="0.4" d="M7.18359 13.6538C7.62202 14.0988 8.01142 13.8888 8.37957 13.5165C8.74772 13.1443 8.95488 12.7496 8.51645 12.3046C8.21204 11.9957 7.4978 11.923 7.09043 11.9074C7.05046 11.9046 7.01035 11.9104 6.97284 11.9245C6.93534 11.9387 6.90133 11.9607 6.87315 11.9892C6.84498 12.0177 6.82329 12.0519 6.80959 12.0896C6.79589 12.1272 6.7905 12.1674 6.79378 12.2074C6.80849 12.6205 6.87754 13.3445 7.18359 13.6538Z" fill="#FFEE47"/>
<path opacity="0.4" d="M12.665 8.10677C13.1035 8.55174 13.4929 8.34212 13.861 7.96948C14.2292 7.59683 14.4363 7.20294 13.9983 6.75797C13.6935 6.44866 12.9792 6.37634 12.5719 6.36081C12.5319 6.35796 12.4918 6.3638 12.4543 6.37791C12.4168 6.39202 12.3828 6.41408 12.3546 6.44257C12.3264 6.47106 12.3047 6.5053 12.291 6.54296C12.2773 6.58061 12.2719 6.62079 12.2752 6.66072C12.2899 7.07382 12.3606 7.79746 12.665 8.10677Z" fill="#FFEE47"/>
<path opacity="0.4" d="M11.1679 4.58004C10.7294 4.13466 10.34 4.34468 9.97229 4.71692C9.60455 5.08916 9.39657 5.48387 9.835 5.92884C10.1394 6.23774 10.8536 6.31047 11.261 6.326C11.301 6.32884 11.3411 6.32301 11.3786 6.3089C11.4161 6.29478 11.4501 6.27273 11.4783 6.24424C11.5065 6.21575 11.5282 6.1815 11.5419 6.14385C11.5556 6.10619 11.561 6.06602 11.5577 6.02608C11.5434 5.61299 11.4727 4.88894 11.1679 4.58004Z" fill="#FFEE76"/>
<path opacity="0.4" d="M6.37207 9.43335C5.93364 8.98838 5.54424 9.198 5.17609 9.57064C4.80794 9.94329 4.60078 10.3376 5.0388 10.7821C5.34321 11.0915 6.05744 11.1642 6.46482 11.1797C6.50481 11.1825 6.54493 11.1766 6.58243 11.1625C6.61993 11.1483 6.65393 11.1262 6.6821 11.0977C6.71028 11.0692 6.73195 11.0349 6.74565 10.9972C6.75935 10.9595 6.76474 10.9193 6.76147 10.8794C6.74716 10.4663 6.67648 9.74266 6.37207 9.43335Z" fill="#FFEE76"/>
<path opacity="0.1" d="M11.0044 20.1C11.4792 20.471 11.842 20.7493 11.9442 20.8188C13.378 21.7971 14.8616 22.7003 16.389 23.5249C18.7556 24.8439 22.4485 26.3443 24.4384 24.5509C26.4157 22.7735 25.1948 19.1455 23.9935 16.7385C23.178 15.028 22.2689 13.3638 21.2701 11.7535C20.8358 11.0765 20.3761 10.4084 19.8919 9.75708C21.5815 13.2498 24.2231 19.4859 22.8682 22.0152C21.7756 24.0623 15.8864 22.1398 11.0044 20.1Z" fill="black"/>
<path opacity="0.2" d="M2.1132 5.58978C2.3242 6.3923 2.61295 7.17233 2.97535 7.91881C3.15922 8.3029 3.36352 8.70741 3.59234 9.11193C4.07449 9.07516 4.57298 9.0343 5.07965 8.98935C6.5984 8.83385 8.1321 9.05416 9.54568 9.63086C10.1913 9.83516 10.6857 9.92914 11.2986 9.57774C11.5644 9.4124 11.8087 9.21476 12.0259 8.98935C12.2847 8.73154 12.4999 8.43348 12.6633 8.10677C12.9202 7.57557 13.0529 6.99293 13.0515 6.4029C13.0552 6.1033 13.0333 5.80394 12.9861 5.50806C12.5652 5.18526 12.1485 4.87472 11.744 4.5887C11.0698 4.11064 10.4078 3.6816 9.76632 3.3016C9.25965 3.01149 8.77342 2.7459 8.30352 2.51709C7.59254 2.16954 6.85296 1.88382 6.09298 1.66311C4.51578 1.22999 3.25728 1.32805 2.53406 2.06354C1.81492 2.78676 1.70868 4.02892 2.1132 5.58978Z" fill="white"/>
<path opacity="0.2" d="M11.3394 4.31085C11.2806 4.63585 11.1761 4.95087 11.0289 5.24655C10.8655 5.57326 10.6503 5.87132 10.3915 6.12913C10.1743 6.35455 9.92998 6.55218 9.66417 6.71752C9.05127 7.06892 8.55686 6.97494 7.91127 6.77064C6.49768 6.19394 4.96399 5.97364 3.44524 6.12913C3.05707 6.16182 2.67298 6.19451 2.29707 6.2272C2.2276 6.01064 2.16631 5.79816 2.1132 5.58978C1.70868 4.02892 1.81492 2.78676 2.53406 2.06354C3.25728 1.32805 4.51578 1.22999 6.09298 1.66311C6.85296 1.88382 7.59254 2.16954 8.30352 2.51709C8.77342 2.7459 9.25965 3.01149 9.76632 3.3016C10.2771 3.60397 10.8042 3.93902 11.3394 4.31085Z" fill="white"/>
</svg>
