<svg width="32" height="32" viewBox="0 0 32 32" fill="none" xmlns="http://www.w3.org/2000/svg">
<g clip-path="url(#clip0_546_952)">
<path d="M22.3382 10.6637C22.1702 10.5228 21.9217 10.5429 21.7792 10.7106L20.8163 11.8494C20.9961 10.9733 20.9599 9.88269 20.4904 8.89787C20.9189 8.46287 21.6033 7.27919 21.6033 5.93144C21.6033 4.58369 20.9739 3.24906 20.8174 3.25137C20.7112 3.25287 20.5333 3.50475 20.3961 3.72012L20.7619 2.07469C20.8091 1.861 20.6744 1.64925 20.4607 1.60162C20.2454 1.55675 20.0356 1.68987 19.9876 1.90281L19.6525 3.41019C19.4156 2.79212 19.0209 2.273 18.8385 1.77031C18.7224 1.45081 18.6001 0.195125 18.3267 0C17.7482 0.3875 17.0348 1.52919 16.9436 3.04406L16.4788 1.78319C16.4037 1.57763 16.173 1.47312 15.9701 1.54819C15.7649 1.62406 15.6596 1.85169 15.7355 2.05725L16.2252 3.38587C15.8756 3.91763 15.647 5.26144 15.6236 6.31431L15.0162 5.27112C14.9056 5.08106 14.6616 5.01794 14.4742 5.12787C14.2853 5.23819 14.2211 5.48094 14.3318 5.66988L15.1835 7.13263C15.1328 7.13581 15.0778 7.13363 15.0323 7.14313C14.4561 9.14531 14.961 10.7974 15.4997 11.8434L14.7027 11.2611C14.5269 11.1329 14.2792 11.1701 14.1491 11.3474C14.0198 11.5243 14.0586 11.7721 14.2351 11.9014L15.5547 12.8655C15.4757 14.0006 15.3487 15.2893 15.8592 16.3729C16.443 17.6124 18.3477 17.9377 18.3941 18.0321L18.4639 17.7004C18.554 17.8911 18.6407 18.0403 18.7015 18.1188C19.0762 17.0427 20.5272 17.1324 20.9546 15.8348C21.386 14.5247 21.1324 13.5304 21.0867 12.7575L22.3847 11.2224C22.5264 11.0552 22.5056 10.8051 22.3383 10.6638L22.3382 10.6637ZM12.6932 13.3046C12.6627 13.3458 12.647 13.3904 12.6191 13.4323L12.5781 10.8918C12.5742 10.673 12.424 10.4864 12.1754 10.5019C11.9563 10.5054 11.7821 10.6858 11.7852 10.9049L11.8152 12.7616C11.5165 12.1442 11.1604 11.6901 10.8837 11.3934C10.5027 10.9846 9.33418 10.4587 8.49374 10.3642L8.30955 8.20206C8.29099 7.98331 8.0773 7.82 7.88136 7.84088C7.66305 7.85944 7.50124 8.05106 7.5198 8.26944L7.66749 10.0032C6.77805 9.32269 5.15224 9.28769 3.92786 9.72906C4.0283 10.0685 4.15561 10.4372 4.31255 10.8093L2.8913 10.0223C2.6993 9.91662 2.4593 9.98513 2.35243 10.1772C2.24636 10.3688 2.31605 10.61 2.5073 10.7161L3.54786 11.2923C2.1788 11.4937 1.22105 12.8035 0.906738 13.2752C1.56018 13.173 2.22061 13.636 2.49474 13.8249C2.98968 14.1693 3.90999 15.498 5.1748 15.5564L4.20911 16.0804C4.0163 16.1849 3.94511 16.4253 4.04961 16.6177C4.12161 16.7501 4.25786 16.8252 4.39805 16.8252C4.4623 16.8252 4.52736 16.8097 4.58699 16.7772L6.12211 15.9441C6.56361 16.6211 7.2233 17.1252 7.72636 17.2819C8.00061 17.3672 8.3318 17.4132 8.66124 17.4346L7.67543 17.6087C7.46018 17.6467 7.31618 17.8522 7.35411 18.0679C7.38818 18.2602 7.55543 18.3954 7.74355 18.3954C7.7668 18.3954 7.78999 18.3934 7.81324 18.3892L9.45936 18.0985C9.43974 18.1334 9.41786 18.1616 9.39868 18.1978C10.286 18.4936 10.8821 19.3622 11.8012 19.7944C12.4957 20.1211 13.3086 20.0095 14.5822 19.353C14.4822 19.2819 14.3891 19.1814 14.2977 19.0697L14.8091 18.9644C15.3379 18.17 14.9267 16.2019 14.6387 15.6089C14.1951 14.696 13.2079 14.1192 12.6931 13.3047L12.6932 13.3046Z" fill="#A27155"/>
<path d="M25.0331 16.702C21.0341 17.4963 19.5545 20.7636 19.7938 23.8017L19.7256 25.5091C20.0501 23.256 21.415 21.2592 23.0193 19.9786C25.3908 18.0856 29.2659 18.5957 31.0931 19.4157C30.4783 17.5212 27.6105 16.1894 25.0331 16.702ZM14.2958 22.0132C12.2271 21.5634 9.92676 22.7348 9.43433 24.4002C10.8992 23.6794 14.0086 23.2303 15.9101 24.8951C17.1976 26.0216 18.4666 27.3076 18.7268 29.2896L18.7074 28.2397C18.8986 25.5678 17.5027 22.7132 14.2958 22.0132Z" fill="#6C9750"/>
<path d="M19.9349 22.6374C19.8319 21.8229 19.1924 18.7058 18.8943 17.6517L18.1309 17.8677C18.4236 18.899 19.0484 21.9429 19.1483 22.7369C19.3554 24.364 19.33 26.009 19.1167 27.4499C19.0643 25.8455 18.7554 23.9762 17.8994 22.3696C17.2552 21.1625 15.3111 19.2348 14.2054 18.5605L13.792 19.2372C14.7792 19.8392 16.6219 21.6596 17.1996 22.7428C18.2276 24.6717 18.4031 27.1472 18.3147 28.8979C18.2745 29.6936 18.1966 30.4358 17.5395 31.4263L18.0861 32C19.6571 30.5022 20.4344 26.5644 19.935 22.6374H19.9349Z" fill="#316B35"/>
<path d="M22.3382 10.6637C22.1702 10.5228 21.9217 10.5429 21.7792 10.7106L20.8163 11.8493C20.7332 12.2539 20.6048 12.6069 20.457 12.8864C20.6894 12.8006 20.907 12.7357 21.0822 12.6987C21.0831 12.7176 21.0855 12.7382 21.0866 12.7574L22.3846 11.2223C22.5263 11.0551 22.5055 10.8051 22.3382 10.6637ZM20.4606 1.60162C20.2454 1.55674 20.0356 1.68987 19.9876 1.90281L19.6525 3.41012C19.763 3.69831 19.8325 4.01049 19.835 4.35112C20.0201 4.19318 20.169 4.07556 20.2197 4.00243C20.2498 3.95849 20.3161 3.84543 20.396 3.72024L20.7618 2.07468C20.809 1.86099 20.6743 1.64924 20.4606 1.60162H20.4606ZM8.2009 10.6769C8.16159 10.545 8.12965 10.4277 8.11827 10.352C8.2314 10.3426 8.35927 10.3491 8.4939 10.3642L8.30971 8.20206C8.29115 7.98331 8.07746 7.81999 7.88152 7.84087C7.66321 7.85943 7.5014 8.05106 7.51996 8.26943L7.66765 10.0032C7.90265 10.1829 8.09171 10.4022 8.2009 10.677V10.6769ZM2.89146 10.0223C2.69946 9.91662 2.45946 9.98512 2.35259 10.1772C2.24652 10.3688 2.31621 10.61 2.50746 10.7161L3.54803 11.2923C3.8519 11.2476 4.17534 11.2559 4.51721 11.3419L4.57702 11.3635C4.48046 11.179 4.3909 10.9947 4.31284 10.8095L2.89152 10.0224L2.89146 10.0223ZM9.59046 14.9858C9.43203 14.7132 9.2879 14.4144 9.17496 14.0719C9.02309 13.9998 8.87659 13.951 8.73277 13.9121C8.35127 13.8087 7.99746 13.8083 7.67534 13.8723C6.71515 14.0632 6.02734 14.7831 5.66152 14.7555C5.68165 14.9187 5.72027 15.0778 5.77127 15.2327C5.79646 15.3092 5.83184 15.3816 5.86352 15.4556C5.9364 15.6261 6.02177 15.7898 6.12234 15.9441C6.56377 16.6211 7.2234 17.1252 7.72646 17.2819C8.00071 17.3672 8.3319 17.4132 8.66134 17.4346C9.15415 17.4668 9.6429 17.4427 9.92915 17.4019L9.95196 17.4042C10.0361 17.3125 10.1242 17.2342 10.2136 17.1605C10.5332 16.8972 10.8851 16.7482 11.266 16.7151C10.9085 16.5066 10.156 15.9586 9.59034 14.9859L9.59046 14.9858ZM12.6932 13.3046C12.6628 13.3458 12.647 13.3904 12.6191 13.4323C12.4663 13.662 12.3547 13.899 12.2718 14.1398C12.1768 14.4162 12.1153 14.6924 12.092 14.9616C12.0045 15.9737 12.3398 16.8544 12.5384 16.9791L12.5451 16.9923C12.5572 16.9986 12.5684 17.0064 12.5803 17.0129C13.4112 17.4689 13.823 18.4881 14.298 19.0696L14.8093 18.9642C15.3382 18.1699 14.927 16.2017 14.639 15.6087C14.1954 14.6959 13.2082 14.1191 12.6933 13.3046H12.6932ZM18.568 6.34168C18.4878 6.05762 18.3911 5.77881 18.257 5.52187C18.1095 5.23893 17.8432 4.97537 17.551 4.70962C17.3692 4.54424 17.178 4.37749 16.9985 4.20518C16.7005 3.91912 16.4355 3.61687 16.3074 3.27349C16.2791 3.30424 16.252 3.34499 16.2251 3.38593C15.8756 3.91768 15.647 5.26149 15.6236 6.31437C15.6163 6.64006 15.6288 6.93549 15.6635 7.17124C15.8495 7.21274 16.0458 7.28531 16.2408 7.37456C16.7745 7.61862 17.2971 8.02193 17.5586 8.52549C18.0208 9.41662 17.8907 11.2965 17.7638 11.854L17.7759 11.8738C17.8581 11.2902 18.0128 10.66 18.286 10.0805C18.4328 9.76943 18.6137 9.47543 18.8378 9.21281C18.8452 8.67624 18.8579 7.84399 18.7154 6.99293C18.6787 6.77399 18.6289 6.55687 18.568 6.34168ZM18.1605 14.9867L18.1377 14.9521C18.1181 14.7486 18.0278 14.4768 17.8805 14.1901C17.8308 14.0934 17.7792 13.9967 17.7148 13.8983C17.5538 13.6521 17.349 13.4061 17.0948 13.1905C16.7883 12.9305 16.4053 12.7268 15.9609 12.6082C15.8356 12.5747 15.7135 12.5367 15.5773 12.5199C15.571 12.6326 15.5628 12.7491 15.5546 12.8655C15.4756 14.0006 15.3487 15.2892 15.8591 16.3728C16.4429 17.6124 18.3476 17.9376 18.394 18.032L18.4639 17.7003C18.2688 17.2876 18.059 16.6582 18.0334 15.9829C18.0208 15.6528 18.058 15.3155 18.1606 14.9867L18.1605 14.9867Z" fill="#C7AE9E"/>
<path d="M12.2718 14.1398C12.3547 13.899 12.4663 13.662 12.619 13.4323L12.578 10.8917C12.5741 10.673 12.4239 10.4864 12.1754 10.5019C11.9562 10.5054 11.782 10.6858 11.7851 10.9049L11.8151 12.7615C12.0039 13.1519 12.1659 13.6104 12.2717 14.1399L12.2718 14.1398ZM5.77142 15.4895C5.56467 15.5466 5.3661 15.5652 5.17485 15.5563L4.20917 16.0803C4.01635 16.1848 3.94517 16.4252 4.04967 16.6176C4.12167 16.75 4.25792 16.8251 4.3981 16.8251C4.46235 16.8251 4.52742 16.8096 4.58704 16.7771L6.12229 15.944C6.02173 15.7897 5.93635 15.6261 5.86348 15.4555L5.77142 15.4895ZM16.2251 3.38594C16.252 3.34494 16.2791 3.30425 16.3074 3.2735C16.4354 3.61687 16.7004 3.91919 16.9985 4.20519C16.9352 3.79856 16.9214 3.4115 16.9434 3.04419L16.4787 1.78312C16.4035 1.57756 16.1729 1.47306 15.97 1.54812C15.7648 1.624 15.6595 1.85162 15.7354 2.05719L16.225 3.38587L16.2251 3.38594ZM8.52273 11.6531C8.3981 11.2871 8.27904 10.9401 8.20085 10.6769C8.09167 10.4022 7.9026 10.1829 7.6676 10.0031C6.77817 9.32269 5.15235 9.28769 3.92798 9.72906C4.02842 10.0685 4.15579 10.4372 4.31279 10.8094C4.39092 10.9946 4.48042 11.1789 4.57698 11.3634C4.71192 11.6209 4.86035 11.8752 5.03842 12.1176C5.61117 12.8972 6.42667 13.5582 7.62423 13.8341L7.67535 13.8723C7.99742 13.8083 8.35129 13.8087 8.73279 13.9121C8.8766 13.951 9.0231 13.9998 9.17498 14.0719C9.07967 13.7832 9.00048 13.4755 8.95517 13.1342C8.91242 12.8111 8.71554 12.2189 8.52273 11.653V11.6531ZM12.5802 17.0129C12.5684 17.0063 12.5571 16.9986 12.545 16.9923C12.5079 16.9731 12.4764 16.9464 12.4377 16.9296C12.2618 16.8526 12.0911 16.7997 11.9237 16.7611C11.6957 16.7084 11.4772 16.6967 11.266 16.7151C10.8851 16.7482 10.5332 16.8971 10.2137 17.1604C10.1242 17.2341 10.0362 17.3124 9.95198 17.4041C9.77585 17.5959 9.61173 17.828 9.45954 18.0984C9.43979 18.1333 9.41804 18.1615 9.39879 18.1977C10.2861 18.4935 10.8822 19.3622 11.8013 19.7943C12.4958 20.1211 13.3087 20.0094 14.5824 19.3529C14.4823 19.2819 14.3892 19.1814 14.2979 19.0697C13.8229 18.4881 13.4111 17.4689 12.5802 17.0129V17.0129ZM18.8378 9.21281C19.1732 8.81975 19.5995 8.496 20.1523 8.30369C20.2885 8.49431 20.3937 8.69519 20.4904 8.89787C20.9188 8.46287 21.6032 7.27912 21.6032 5.93144C21.6032 4.58375 20.9738 3.24906 20.8174 3.25137C20.7111 3.25287 20.5332 3.50475 20.396 3.72025C20.3161 3.84537 20.2499 3.9585 20.2197 4.00244C20.169 4.07556 20.0201 4.19319 19.835 4.35112C19.6849 4.47919 19.5124 4.63344 19.338 4.82412C18.9984 5.19537 18.6795 5.69837 18.568 6.34169C18.6289 6.55681 18.6787 6.77394 18.7154 6.99294C18.8579 7.844 18.8452 8.67631 18.8379 9.21281H18.8378ZM17.5585 8.52556C17.297 8.022 16.7744 7.61875 16.2408 7.37462C16.0457 7.28537 15.8494 7.21281 15.6634 7.17131C15.4884 7.13219 15.3292 7.1235 15.1834 7.13262C15.1327 7.13581 15.0778 7.13362 15.0322 7.14312C14.4559 9.14531 14.9609 10.7974 15.4996 11.8434C15.66 12.1551 15.8219 12.4114 15.9609 12.6082C16.4053 12.7268 16.7884 12.9305 17.0947 13.1905C17.3489 13.406 17.5537 13.6521 17.7147 13.8983L17.711 13.8681C17.6967 13.712 17.6613 13.1837 17.7079 12.5078C17.7217 12.3079 17.7447 12.0941 17.7757 11.8738L17.7636 11.854C17.8906 11.2966 18.0207 9.41669 17.5584 8.5255L17.5585 8.52556ZM21.0821 12.6987C20.9069 12.7357 20.6893 12.8006 20.4569 12.8865C20.1795 12.989 19.8799 13.1267 19.5844 13.3062C18.9993 13.6612 18.4452 14.1714 18.1888 14.8747C18.1754 14.9114 18.1722 14.9496 18.1605 14.9867C18.058 15.3155 18.0208 15.6528 18.0334 15.9829C18.0589 16.6582 18.2687 17.2876 18.4639 17.7003C18.554 17.891 18.6406 18.0402 18.7014 18.1187C19.0761 17.0426 20.527 17.1324 20.9544 15.8347C21.3859 14.5247 21.1323 13.5303 21.0866 12.7574C21.0854 12.7383 21.083 12.7176 21.0822 12.6987H21.0821Z" fill="#EFD7B0"/>
</g>
<defs>
<clipPath id="clip0_546_952">
<rect width="32" height="32" fill="white"/>
</clipPath>
</defs>
</svg>
