<svg width="352" height="323" viewBox="0 0 352 323" fill="none" xmlns="http://www.w3.org/2000/svg">
<g filter="url(#filter0_d_218_10760)">
<rect x="4" y="3" width="344" height="314" rx="8" fill="white" shape-rendering="crispEdges"/>
<rect x="4.5" y="3.5" width="343" height="313" rx="7.5" stroke="#D3D3D3" shape-rendering="crispEdges"/>
<path d="M4 11C4 6.58173 7.58172 3 12 3H340C344.418 3 348 6.58172 348 11V77.2994H4V11Z" fill="#FF7272"/>
<path d="M92.4667 23.674V22.2422L99.2678 19.1001V20.8651L94.4355 22.9382L94.4901 22.8438V23.0724L94.4355 22.978L99.2678 25.0511V26.8161L92.4667 23.674ZM122.397 27H118.947V16.8182H122.467C123.477 16.8182 124.346 17.022 125.072 17.4297C125.801 17.834 126.361 18.4157 126.752 19.1747C127.143 19.9337 127.339 20.8419 127.339 21.8991C127.339 22.9598 127.141 23.8712 126.747 24.6335C126.356 25.3958 125.791 25.9808 125.052 26.3885C124.316 26.7962 123.431 27 122.397 27ZM120.791 25.4041H122.307C123.017 25.4041 123.608 25.2749 124.082 25.0163C124.556 24.7545 124.913 24.3651 125.151 23.848C125.39 23.3277 125.509 22.678 125.509 21.8991C125.509 21.1203 125.39 20.474 125.151 19.9602C124.913 19.4432 124.56 19.0571 124.092 18.8018C123.628 18.5433 123.052 18.4141 122.362 18.4141H120.791V25.4041ZM129.091 27V16.8182H135.713V18.3643H130.936V21.1286H135.37V22.6747H130.936V25.4538H135.753V27H129.091ZM146.31 20.2536H144.451C144.398 19.9486 144.3 19.6785 144.158 19.4432C144.015 19.2045 143.838 19.0024 143.626 18.8366C143.414 18.6709 143.172 18.5466 142.9 18.4638C142.631 18.3776 142.341 18.3345 142.03 18.3345C141.476 18.3345 140.986 18.4737 140.558 18.7521C140.131 19.0272 139.796 19.4316 139.554 19.9652C139.312 20.4955 139.191 21.1435 139.191 21.9091C139.191 22.688 139.312 23.3442 139.554 23.8778C139.799 24.4081 140.134 24.8092 140.558 25.081C140.986 25.3494 141.475 25.4837 142.025 25.4837C142.33 25.4837 142.615 25.4439 142.88 25.3643C143.148 25.2815 143.389 25.1605 143.601 25.0014C143.816 24.8423 143.997 24.6468 144.143 24.4148C144.292 24.1828 144.395 23.9176 144.451 23.6193L146.31 23.6293C146.241 24.1132 146.09 24.5672 145.858 24.9915C145.629 25.4157 145.329 25.7902 144.958 26.1151C144.587 26.4366 144.153 26.6884 143.655 26.8707C143.158 27.0497 142.606 27.1392 142 27.1392C141.105 27.1392 140.306 26.9321 139.604 26.5178C138.901 26.1035 138.347 25.5052 137.943 24.723C137.539 23.9408 137.337 23.0028 137.337 21.9091C137.337 20.812 137.54 19.8741 137.948 19.0952C138.356 18.313 138.911 17.7147 139.614 17.3004C140.316 16.8861 141.112 16.679 142 16.679C142.567 16.679 143.094 16.7585 143.581 16.9176C144.068 17.0767 144.502 17.3104 144.883 17.6186C145.265 17.9235 145.578 18.2981 145.823 18.7422C146.072 19.183 146.234 19.6868 146.31 20.2536ZM147.999 27V16.8182H154.622V18.3643H149.844V21.1286H154.278V22.6747H149.844V25.4538H154.661V27H147.999ZM156.503 16.8182H158.76L161.783 24.196H161.902L164.925 16.8182H167.182V27H165.412V20.005H165.318L162.504 26.9702H161.182L158.368 19.9901H158.273V27H156.503V16.8182ZM169.191 27V16.8182H173.089C173.824 16.8182 174.436 16.9342 174.923 17.1662C175.414 17.3949 175.78 17.7081 176.022 18.1058C176.267 18.5036 176.39 18.9543 176.39 19.4581C176.39 19.8724 176.31 20.227 176.151 20.522C175.992 20.8137 175.778 21.0507 175.51 21.233C175.241 21.4152 174.941 21.5462 174.61 21.6257V21.7251C174.971 21.745 175.317 21.8561 175.649 22.0582C175.984 22.2571 176.257 22.5388 176.469 22.9034C176.681 23.268 176.787 23.7088 176.787 24.2259C176.787 24.7528 176.66 25.2268 176.405 25.6477C176.149 26.0653 175.765 26.3951 175.251 26.6371C174.737 26.879 174.091 27 173.312 27H169.191ZM171.035 25.4588H173.019C173.688 25.4588 174.171 25.3312 174.466 25.076C174.764 24.8175 174.913 24.486 174.913 24.0817C174.913 23.7801 174.839 23.5083 174.689 23.2663C174.54 23.0211 174.328 22.8288 174.053 22.6896C173.778 22.5471 173.45 22.4759 173.069 22.4759H171.035V25.4588ZM171.035 21.1484H172.86C173.178 21.1484 173.465 21.0904 173.72 20.9744C173.975 20.8551 174.176 20.6877 174.321 20.4723C174.471 20.2536 174.545 19.995 174.545 19.6967C174.545 19.3023 174.406 18.9775 174.128 18.7223C173.852 18.4671 173.443 18.3395 172.9 18.3395H171.035V21.1484ZM178.392 27V16.8182H185.014V18.3643H180.236V21.1286H184.671V22.6747H180.236V25.4538H185.054V27H178.392ZM186.896 27V16.8182H190.714C191.496 16.8182 192.152 16.9541 192.683 17.2259C193.216 17.4976 193.619 17.8788 193.891 18.3693C194.166 18.8565 194.304 19.425 194.304 20.0746C194.304 20.7275 194.164 21.2943 193.886 21.7749C193.611 22.2521 193.205 22.6217 192.668 22.8835C192.131 23.142 191.471 23.2713 190.689 23.2713H187.97V21.7401H190.441C190.898 21.7401 191.273 21.6771 191.564 21.5511C191.856 21.4219 192.071 21.2346 192.21 20.9893C192.353 20.7408 192.424 20.4358 192.424 20.0746C192.424 19.7133 192.353 19.4051 192.21 19.1499C192.068 18.8913 191.851 18.6958 191.559 18.5632C191.268 18.4273 190.891 18.3594 190.431 18.3594H188.74V27H186.896ZM192.156 22.3864L194.676 27H192.618L190.142 22.3864H192.156ZM199.375 27V25.6676L202.909 22.2024C203.247 21.861 203.529 21.5578 203.755 21.2926C203.98 21.0275 204.149 20.7706 204.262 20.522C204.374 20.2734 204.431 20.0083 204.431 19.7266C204.431 19.4051 204.358 19.13 204.212 18.9013C204.066 18.6693 203.866 18.4903 203.61 18.3643C203.355 18.2384 203.065 18.1754 202.74 18.1754C202.406 18.1754 202.112 18.245 201.86 18.3842C201.608 18.5201 201.413 18.714 201.274 18.9659C201.138 19.2178 201.07 19.5178 201.07 19.8658H199.315C199.315 19.2195 199.462 18.6577 199.757 18.1804C200.052 17.7031 200.458 17.3336 200.975 17.0717C201.496 16.8099 202.092 16.679 202.765 16.679C203.448 16.679 204.048 16.8066 204.565 17.0618C205.082 17.317 205.483 17.6667 205.768 18.1108C206.056 18.5549 206.201 19.062 206.201 19.6321C206.201 20.0133 206.128 20.3878 205.982 20.7557C205.836 21.1236 205.579 21.5312 205.211 21.9787C204.847 22.4261 204.335 22.968 203.675 23.6044L201.92 25.3892V25.4588H206.355V27H199.375ZM211.833 27.1939C211.015 27.1939 210.312 26.9867 209.725 26.5724C209.142 26.1548 208.693 25.5533 208.378 24.7678C208.067 23.9789 207.911 23.0294 207.911 21.919C207.914 20.8087 208.072 19.8641 208.383 19.0852C208.698 18.303 209.147 17.7064 209.73 17.2955C210.317 16.8845 211.018 16.679 211.833 16.679C212.649 16.679 213.35 16.8845 213.936 17.2955C214.523 17.7064 214.972 18.303 215.284 19.0852C215.599 19.8674 215.756 20.812 215.756 21.919C215.756 23.0327 215.599 23.9839 215.284 24.7727C214.972 25.5582 214.523 26.1581 213.936 26.5724C213.353 26.9867 212.652 27.1939 211.833 27.1939ZM211.833 25.6378C212.47 25.6378 212.972 25.3246 213.34 24.6982C213.711 24.0684 213.897 23.142 213.897 21.919C213.897 21.1103 213.812 20.4309 213.643 19.8807C213.474 19.3305 213.235 18.9162 212.927 18.6378C212.619 18.3561 212.254 18.2152 211.833 18.2152C211.2 18.2152 210.7 18.5301 210.332 19.1598C209.964 19.7862 209.778 20.706 209.775 21.919C209.772 22.7311 209.853 23.4138 210.019 23.9673C210.188 24.5208 210.426 24.9384 210.735 25.2202C211.043 25.4986 211.409 25.6378 211.833 25.6378ZM217.408 27V25.6676L220.943 22.2024C221.281 21.861 221.562 21.5578 221.788 21.2926C222.013 21.0275 222.182 20.7706 222.295 20.522C222.408 20.2734 222.464 20.0083 222.464 19.7266C222.464 19.4051 222.391 19.13 222.245 18.9013C222.099 18.6693 221.899 18.4903 221.644 18.3643C221.388 18.2384 221.098 18.1754 220.774 18.1754C220.439 18.1754 220.145 18.245 219.894 18.3842C219.642 18.5201 219.446 18.714 219.307 18.9659C219.171 19.2178 219.103 19.5178 219.103 19.8658H217.348C217.348 19.2195 217.496 18.6577 217.791 18.1804C218.086 17.7031 218.492 17.3336 219.009 17.0717C219.529 16.8099 220.126 16.679 220.798 16.679C221.481 16.679 222.081 16.8066 222.598 17.0618C223.115 17.317 223.516 17.6667 223.801 18.1108C224.09 18.5549 224.234 19.062 224.234 19.6321C224.234 20.0133 224.161 20.3878 224.015 20.7557C223.869 21.1236 223.612 21.5312 223.244 21.9787C222.88 22.4261 222.368 22.968 221.708 23.6044L219.953 25.3892V25.4588H224.388V27H217.408ZM229.643 27.1392C228.98 27.1392 228.387 27.0149 227.863 26.7663C227.339 26.5144 226.923 26.1697 226.615 25.7322C226.31 25.2947 226.148 24.7943 226.128 24.2308H227.918C227.951 24.6484 228.131 24.9898 228.46 25.255C228.788 25.5168 229.182 25.6477 229.643 25.6477C230.004 25.6477 230.326 25.5649 230.607 25.3991C230.889 25.2334 231.111 25.0031 231.274 24.7081C231.436 24.4131 231.515 24.0767 231.512 23.6989C231.515 23.3144 231.434 22.973 231.269 22.6747C231.103 22.3764 230.876 22.1428 230.587 21.9737C230.299 21.8014 229.968 21.7152 229.593 21.7152C229.288 21.7119 228.988 21.7682 228.693 21.8842C228.398 22.0002 228.165 22.1527 227.992 22.3416L226.327 22.0682L226.859 16.8182H232.765V18.3594H228.385L228.092 21.0589H228.151C228.34 20.8369 228.607 20.6529 228.952 20.5071C229.296 20.358 229.674 20.2834 230.085 20.2834C230.702 20.2834 231.252 20.4292 231.736 20.7209C232.22 21.0092 232.601 21.407 232.879 21.9141C233.158 22.4212 233.297 23.0012 233.297 23.6541C233.297 24.3269 233.141 24.9268 232.83 25.4538C232.521 25.9775 232.092 26.3902 231.542 26.6918C230.995 26.9901 230.362 27.1392 229.643 27.1392ZM259.53 23.674L252.728 26.8161V25.0511L257.561 22.978L257.506 23.0724V22.8438L257.561 22.9382L252.728 20.8651V19.1001L259.53 22.2422V23.674Z" fill="black"/>
<path d="M305.172 52.4929C305.119 52.0223 304.9 51.6577 304.516 51.3991C304.131 51.1373 303.647 51.0064 303.064 51.0064C302.646 51.0064 302.285 51.0727 301.98 51.2053C301.675 51.3345 301.438 51.5135 301.269 51.7422C301.103 51.9676 301.021 52.2244 301.021 52.5128C301.021 52.7547 301.077 52.9635 301.19 53.1392C301.306 53.3149 301.456 53.4624 301.642 53.5817C301.831 53.6977 302.033 53.7955 302.249 53.875C302.464 53.9512 302.671 54.0142 302.87 54.0639L303.864 54.3224C304.189 54.402 304.522 54.5097 304.864 54.6456C305.205 54.7815 305.522 54.9605 305.813 55.1825C306.105 55.4046 306.34 55.6797 306.519 56.0078C306.701 56.3359 306.793 56.7287 306.793 57.1861C306.793 57.7628 306.643 58.2749 306.345 58.7223C306.05 59.1697 305.621 59.5227 305.058 59.7812C304.497 60.0398 303.82 60.169 303.024 60.169C302.262 60.169 301.602 60.0481 301.045 59.8061C300.489 59.5642 300.053 59.2211 299.738 58.777C299.423 58.3295 299.249 57.7992 299.216 57.1861H300.757C300.787 57.554 300.906 57.8606 301.115 58.1058C301.327 58.3478 301.597 58.5284 301.925 58.6477C302.257 58.7637 302.62 58.8217 303.014 58.8217C303.448 58.8217 303.835 58.7538 304.173 58.6179C304.514 58.4787 304.782 58.2865 304.978 58.0412C305.174 57.7926 305.271 57.5026 305.271 57.1712C305.271 56.8696 305.185 56.6226 305.013 56.4304C304.844 56.2382 304.613 56.0791 304.322 55.9531C304.033 55.8272 303.707 55.7161 303.342 55.62L302.139 55.2919C301.324 55.0698 300.678 54.7434 300.2 54.3125C299.726 53.8816 299.489 53.3116 299.489 52.6023C299.489 52.0156 299.648 51.5036 299.967 51.0661C300.285 50.6286 300.716 50.2888 301.259 50.0469C301.803 49.8016 302.416 49.679 303.099 49.679C303.788 49.679 304.396 49.8 304.923 50.0419C305.454 50.2839 305.871 50.617 306.176 51.0412C306.481 51.4621 306.64 51.946 306.653 52.4929H305.172ZM313.346 56.8331V52.3636H314.838V60H313.376V58.6776H313.297C313.121 59.0852 312.839 59.425 312.452 59.6967C312.067 59.9652 311.588 60.0994 311.015 60.0994C310.524 60.0994 310.09 59.9917 309.712 59.7763C309.338 59.5575 309.043 59.2344 308.827 58.8068C308.615 58.3793 308.509 57.8506 308.509 57.2209V52.3636H309.996V57.0419C309.996 57.5623 310.14 57.9766 310.428 58.2848C310.716 58.593 311.091 58.7472 311.552 58.7472C311.83 58.7472 312.107 58.6776 312.382 58.5384C312.66 58.3991 312.891 58.1887 313.073 57.907C313.259 57.6252 313.35 57.2673 313.346 56.8331ZM318.322 55.4659V60H316.835V52.3636H318.262V53.6065H318.357C318.532 53.2022 318.807 52.8774 319.182 52.6321C319.56 52.3868 320.035 52.2642 320.609 52.2642C321.129 52.2642 321.585 52.3736 321.976 52.5923C322.367 52.8078 322.67 53.1293 322.886 53.5568C323.101 53.9844 323.209 54.513 323.209 55.1428V60H321.722V55.3217C321.722 54.7682 321.578 54.3357 321.29 54.0241C321.001 53.7093 320.605 53.5518 320.102 53.5518C319.757 53.5518 319.45 53.6264 319.182 53.7756C318.917 53.9247 318.706 54.1435 318.55 54.4318C318.398 54.7169 318.322 55.0616 318.322 55.4659Z" fill="black"/>
<path d="M28.6186 49.8182H30.483L33.7244 57.733H33.8438L37.0852 49.8182H38.9496V60H37.4879V52.6321H37.3935L34.3906 59.9851H33.1776L30.1747 52.6271H30.0803V60H28.6186V49.8182ZM44.2804 60.1541C43.5645 60.1541 42.9397 59.9901 42.4061 59.6619C41.8725 59.3338 41.4582 58.8748 41.1632 58.2848C40.8682 57.6948 40.7207 57.0054 40.7207 56.2166C40.7207 55.4245 40.8682 54.7318 41.1632 54.1385C41.4582 53.5452 41.8725 53.0845 42.4061 52.7564C42.9397 52.4283 43.5645 52.2642 44.2804 52.2642C44.9963 52.2642 45.621 52.4283 46.1547 52.7564C46.6883 53.0845 47.1026 53.5452 47.3975 54.1385C47.6925 54.7318 47.84 55.4245 47.84 56.2166C47.84 57.0054 47.6925 57.6948 47.3975 58.2848C47.1026 58.8748 46.6883 59.3338 46.1547 59.6619C45.621 59.9901 44.9963 60.1541 44.2804 60.1541ZM44.2853 58.9062C44.7493 58.9062 45.1338 58.7836 45.4387 58.5384C45.7437 58.2931 45.969 57.9666 46.1149 57.5589C46.264 57.1513 46.3386 56.7022 46.3386 56.2116C46.3386 55.7244 46.264 55.277 46.1149 54.8693C45.969 54.4583 45.7437 54.1286 45.4387 53.88C45.1338 53.6314 44.7493 53.5071 44.2853 53.5071C43.818 53.5071 43.4302 53.6314 43.122 53.88C42.8171 54.1286 42.59 54.4583 42.4409 54.8693C42.295 55.277 42.2221 55.7244 42.2221 56.2116C42.2221 56.7022 42.295 57.1513 42.4409 57.5589C42.59 57.9666 42.8171 58.2931 43.122 58.5384C43.4302 58.7836 43.818 58.9062 44.2853 58.9062ZM50.9858 55.4659V60H49.4993V52.3636H50.9261V53.6065H51.0206C51.1963 53.2022 51.4714 52.8774 51.8459 52.6321C52.2237 52.3868 52.6993 52.2642 53.2727 52.2642C53.7931 52.2642 54.2488 52.3736 54.6399 52.5923C55.031 52.8078 55.3343 53.1293 55.5497 53.5568C55.7652 53.9844 55.8729 54.513 55.8729 55.1428V60H54.3864V55.3217C54.3864 54.7682 54.2422 54.3357 53.9538 54.0241C53.6655 53.7093 53.2694 53.5518 52.7656 53.5518C52.4209 53.5518 52.1143 53.6264 51.8459 53.7756C51.5807 53.9247 51.3703 54.1435 51.2145 54.4318C51.062 54.7169 50.9858 55.0616 50.9858 55.4659Z" fill="black"/>
<path d="M78.1165 51.1406V49.8182H85.9964V51.1406H82.8196V60H81.2884V51.1406H78.1165ZM91.4167 56.8331V52.3636H92.9082V60H91.4466V58.6776H91.367C91.1913 59.0852 90.9096 59.425 90.5218 59.6967C90.1374 59.9652 89.6584 60.0994 89.085 60.0994C88.5945 60.0994 88.1603 59.9917 87.7825 59.7763C87.408 59.5575 87.113 59.2344 86.8975 58.8068C86.6854 58.3793 86.5794 57.8506 86.5794 57.2209V52.3636H88.0659V57.0419C88.0659 57.5623 88.21 57.9766 88.4984 58.2848C88.7868 58.593 89.1613 58.7472 89.622 58.7472C89.9004 58.7472 90.1771 58.6776 90.4522 58.5384C90.7306 58.3991 90.961 58.1887 91.1433 57.907C91.3289 57.6252 91.42 57.2673 91.4167 56.8331ZM98.1967 60.1541C97.4444 60.1541 96.7964 59.9934 96.2528 59.6719C95.7126 59.3471 95.295 58.8913 95 58.3047C94.7083 57.7147 94.5625 57.0237 94.5625 56.2315C94.5625 55.4493 94.7083 54.7599 95 54.1634C95.295 53.5668 95.706 53.1011 96.233 52.7663C96.7633 52.4316 97.383 52.2642 98.0923 52.2642C98.5232 52.2642 98.9408 52.3355 99.3452 52.478C99.7495 52.6205 100.112 52.8442 100.434 53.1491C100.755 53.4541 101.009 53.8501 101.195 54.3374C101.38 54.8213 101.473 55.4096 101.473 56.1023V56.6293H95.4027V55.5156H100.016C100.016 55.1245 99.9368 54.7782 99.7777 54.4766C99.6186 54.1716 99.3949 53.9313 99.1065 53.7557C98.8215 53.58 98.4867 53.4922 98.1023 53.4922C97.6847 53.4922 97.3201 53.5949 97.0085 53.8004C96.7003 54.0026 96.4616 54.2678 96.2926 54.5959C96.1269 54.9207 96.044 55.2737 96.044 55.6548V56.5249C96.044 57.0353 96.1335 57.4695 96.3125 57.8274C96.4948 58.1854 96.7483 58.4588 97.0732 58.6477C97.398 58.8333 97.7775 58.9261 98.2116 58.9261C98.4934 58.9261 98.7502 58.8864 98.9822 58.8068C99.2143 58.724 99.4148 58.6013 99.5838 58.4389C99.7528 58.2765 99.8821 58.076 99.9716 57.8374L101.379 58.0909C101.266 58.5052 101.064 58.8681 100.772 59.1797C100.484 59.4879 100.121 59.7282 99.6832 59.9006C99.2491 60.0696 98.7536 60.1541 98.1967 60.1541Z" fill="black"/>
<path d="M125.612 60L122.788 49.8182H124.404L126.388 57.7031H126.482L128.545 49.8182H130.146L132.21 57.7081H132.304L134.283 49.8182H135.903L133.075 60H131.528L129.386 52.3736H129.306L127.163 60H125.612ZM139.724 60.1541C138.972 60.1541 138.324 59.9934 137.78 59.6719C137.24 59.3471 136.822 58.8913 136.527 58.3047C136.236 57.7147 136.09 57.0237 136.09 56.2315C136.09 55.4493 136.236 54.7599 136.527 54.1634C136.822 53.5668 137.233 53.1011 137.76 52.7663C138.291 52.4316 138.91 52.2642 139.62 52.2642C140.051 52.2642 140.468 52.3355 140.873 52.478C141.277 52.6205 141.64 52.8442 141.961 53.1491C142.283 53.4541 142.536 53.8501 142.722 54.3374C142.908 54.8213 143 55.4096 143 56.1023V56.6293H136.93V55.5156H141.544C141.544 55.1245 141.464 54.7782 141.305 54.4766C141.146 54.1716 140.922 53.9313 140.634 53.7557C140.349 53.58 140.014 53.4922 139.63 53.4922C139.212 53.4922 138.847 53.5949 138.536 53.8004C138.228 54.0026 137.989 54.2678 137.82 54.5959C137.654 54.9207 137.571 55.2737 137.571 55.6548V56.5249C137.571 57.0353 137.661 57.4695 137.84 57.8274C138.022 58.1854 138.276 58.4588 138.6 58.6477C138.925 58.8333 139.305 58.9261 139.739 58.9261C140.021 58.9261 140.278 58.8864 140.51 58.8068C140.742 58.724 140.942 58.6013 141.111 58.4389C141.28 58.2765 141.409 58.076 141.499 57.8374L142.906 58.0909C142.793 58.5052 142.591 58.8681 142.299 59.1797C142.011 59.4879 141.648 59.7282 141.211 59.9006C140.776 60.0696 140.281 60.1541 139.724 60.1541ZM147.508 60.1491C146.892 60.1491 146.342 59.9917 145.858 59.6768C145.377 59.3587 144.999 58.9062 144.724 58.3196C144.452 57.7296 144.317 57.022 144.317 56.1967C144.317 55.3714 144.454 54.6655 144.729 54.0788C145.008 53.4922 145.389 53.0431 145.873 52.7315C146.357 52.42 146.905 52.2642 147.518 52.2642C147.992 52.2642 148.373 52.3438 148.662 52.5028C148.953 52.6586 149.179 52.8409 149.338 53.0497C149.5 53.2585 149.626 53.4425 149.716 53.6016H149.805V49.8182H151.292V60H149.84V58.8118H149.716C149.626 58.9742 149.497 59.1598 149.328 59.3686C149.162 59.5774 148.934 59.7597 148.642 59.9155C148.35 60.0713 147.972 60.1491 147.508 60.1491ZM147.836 58.8814C148.264 58.8814 148.625 58.7687 148.92 58.5433C149.219 58.3146 149.444 57.9981 149.596 57.5938C149.752 57.1894 149.83 56.7187 149.83 56.1818C149.83 55.6515 149.754 55.1875 149.601 54.7898C149.449 54.392 149.225 54.0821 148.93 53.8601C148.635 53.638 148.271 53.527 147.836 53.527C147.389 53.527 147.016 53.643 146.718 53.875C146.42 54.107 146.194 54.4235 146.042 54.8246C145.893 55.2256 145.818 55.678 145.818 56.1818C145.818 56.6922 145.894 57.1513 146.047 57.5589C146.199 57.9666 146.425 58.2898 146.723 58.5284C147.024 58.7637 147.396 58.8814 147.836 58.8814Z" fill="black"/>
<path d="M173.116 51.1406V49.8182H180.996V51.1406H177.82V60H176.288V51.1406H173.116ZM184.105 55.4659V60H182.618V49.8182H184.085V53.6065H184.18C184.358 53.1955 184.632 52.8691 185 52.6271C185.368 52.3852 185.848 52.2642 186.442 52.2642C186.965 52.2642 187.423 52.3719 187.814 52.5874C188.208 52.8028 188.513 53.1243 188.729 53.5518C188.947 53.9761 189.057 54.5064 189.057 55.1428V60H187.57V55.3217C187.57 54.7616 187.426 54.3274 187.138 54.0192C186.849 53.7076 186.448 53.5518 185.934 53.5518C185.583 53.5518 185.268 53.6264 184.99 53.7756C184.715 53.9247 184.498 54.1435 184.339 54.4318C184.183 54.7169 184.105 55.0616 184.105 55.4659ZM195.878 56.8331V52.3636H197.369V60H195.907V58.6776H195.828C195.652 59.0852 195.371 59.425 194.983 59.6967C194.598 59.9652 194.119 60.0994 193.546 60.0994C193.055 60.0994 192.621 59.9917 192.243 59.7763C191.869 59.5575 191.574 59.2344 191.358 58.8068C191.146 58.3793 191.04 57.8506 191.04 57.2209V52.3636H192.527V57.0419C192.527 57.5623 192.671 57.9766 192.959 58.2848C193.248 58.593 193.622 58.7472 194.083 58.7472C194.361 58.7472 194.638 58.6776 194.913 58.5384C195.192 58.3991 195.422 58.1887 195.604 57.907C195.79 57.6252 195.881 57.2673 195.878 56.8331Z" fill="black"/>
<path d="M219.619 60V49.8182H225.933V51.1406H221.155V54.2429H225.48V55.5604H221.155V60H219.619ZM227.607 60V52.3636H229.044V53.5767H229.123C229.262 53.1657 229.508 52.8426 229.859 52.6072C230.213 52.3686 230.615 52.2493 231.062 52.2493C231.155 52.2493 231.264 52.2526 231.39 52.2592C231.519 52.2659 231.62 52.2741 231.693 52.2841V53.706C231.634 53.6894 231.528 53.6712 231.375 53.6513C231.223 53.6281 231.07 53.6165 230.918 53.6165C230.566 53.6165 230.253 53.6911 229.978 53.8402C229.706 53.986 229.491 54.1899 229.332 54.4517C229.173 54.7102 229.093 55.0052 229.093 55.3366V60H227.607ZM232.98 60V52.3636H234.466V60H232.98ZM233.73 51.1854C233.472 51.1854 233.25 51.0992 233.064 50.9268C232.882 50.7512 232.791 50.5424 232.791 50.3004C232.791 50.0552 232.882 49.8464 233.064 49.674C233.25 49.4983 233.472 49.4105 233.73 49.4105C233.989 49.4105 234.209 49.4983 234.392 49.674C234.577 49.8464 234.67 50.0552 234.67 50.3004C234.67 50.5424 234.577 50.7512 234.392 50.9268C234.209 51.0992 233.989 51.1854 233.73 51.1854Z" fill="black"/>
<path d="M262.172 52.4929C262.119 52.0223 261.9 51.6577 261.516 51.3991C261.131 51.1373 260.647 51.0064 260.064 51.0064C259.646 51.0064 259.285 51.0727 258.98 51.2053C258.675 51.3345 258.438 51.5135 258.269 51.7422C258.103 51.9676 258.021 52.2244 258.021 52.5128C258.021 52.7547 258.077 52.9635 258.19 53.1392C258.306 53.3149 258.456 53.4624 258.642 53.5817C258.831 53.6977 259.033 53.7955 259.249 53.875C259.464 53.9512 259.671 54.0142 259.87 54.0639L260.864 54.3224C261.189 54.402 261.522 54.5097 261.864 54.6456C262.205 54.7815 262.522 54.9605 262.813 55.1825C263.105 55.4046 263.34 55.6797 263.519 56.0078C263.701 56.3359 263.793 56.7287 263.793 57.1861C263.793 57.7628 263.643 58.2749 263.345 58.7223C263.05 59.1697 262.621 59.5227 262.058 59.7812C261.497 60.0398 260.82 60.169 260.024 60.169C259.262 60.169 258.602 60.0481 258.045 59.8061C257.489 59.5642 257.053 59.2211 256.738 58.777C256.423 58.3295 256.249 57.7992 256.216 57.1861H257.757C257.787 57.554 257.906 57.8606 258.115 58.1058C258.327 58.3478 258.597 58.5284 258.925 58.6477C259.257 58.7637 259.62 58.8217 260.014 58.8217C260.448 58.8217 260.835 58.7538 261.173 58.6179C261.514 58.4787 261.782 58.2865 261.978 58.0412C262.174 57.7926 262.271 57.5026 262.271 57.1712C262.271 56.8696 262.185 56.6226 262.013 56.4304C261.844 56.2382 261.613 56.0791 261.322 55.9531C261.033 55.8272 260.707 55.7161 260.342 55.62L259.139 55.2919C258.324 55.0698 257.678 54.7434 257.2 54.3125C256.726 53.8816 256.489 53.3116 256.489 52.6023C256.489 52.0156 256.648 51.5036 256.967 51.0661C257.285 50.6286 257.716 50.2888 258.259 50.0469C258.803 49.8016 259.416 49.679 260.099 49.679C260.788 49.679 261.396 49.8 261.923 50.0419C262.454 50.2839 262.871 50.617 263.176 51.0412C263.481 51.4621 263.64 51.946 263.653 52.4929H262.172ZM267.731 60.169C267.247 60.169 266.81 60.0795 266.419 59.9006C266.028 59.7183 265.718 59.4548 265.489 59.1101C265.264 58.7654 265.151 58.3428 265.151 57.8423C265.151 57.4115 265.234 57.0568 265.4 56.7784C265.565 56.5 265.789 56.2796 266.071 56.1172C266.353 55.9548 266.667 55.8321 267.015 55.7493C267.363 55.6664 267.718 55.6035 268.079 55.5604C268.537 55.5073 268.908 55.4643 269.193 55.4311C269.478 55.3946 269.685 55.3366 269.814 55.2571C269.944 55.1776 270.008 55.0483 270.008 54.8693V54.8345C270.008 54.4003 269.886 54.0639 269.64 53.8253C269.398 53.5866 269.037 53.4673 268.557 53.4673C268.056 53.4673 267.662 53.5784 267.373 53.8004C267.088 54.0192 266.891 54.2628 266.782 54.5312L265.385 54.2131C265.55 53.7491 265.792 53.3745 266.111 53.0895C266.432 52.8011 266.802 52.5923 267.219 52.4631C267.637 52.3305 268.076 52.2642 268.537 52.2642C268.842 52.2642 269.165 52.3007 269.506 52.3736C269.851 52.4432 270.172 52.5724 270.471 52.7614C270.772 52.9503 271.019 53.2204 271.211 53.5717C271.404 53.9197 271.5 54.3722 271.5 54.929V60H270.048V58.956H269.988C269.892 59.1482 269.748 59.3371 269.556 59.5227C269.364 59.7083 269.117 59.8625 268.815 59.9851C268.514 60.1077 268.152 60.169 267.731 60.169ZM268.055 58.9759C268.465 58.9759 268.817 58.8946 269.108 58.7322C269.403 58.5698 269.627 58.3577 269.78 58.0959C269.935 57.8307 270.013 57.5473 270.013 57.2457V56.2614C269.96 56.3144 269.858 56.3641 269.705 56.4105C269.556 56.4536 269.385 56.4917 269.193 56.5249C269.001 56.5547 268.814 56.5829 268.631 56.6094C268.449 56.6326 268.296 56.6525 268.174 56.669C267.885 56.7055 267.622 56.7668 267.383 56.853C267.148 56.9392 266.959 57.0634 266.817 57.2259C266.677 57.3849 266.608 57.5971 266.608 57.8622C266.608 58.2301 266.744 58.5085 267.015 58.6974C267.287 58.883 267.634 58.9759 268.055 58.9759ZM277.044 52.3636V53.5568H272.873V52.3636H277.044ZM273.992 50.5341H275.478V57.7578C275.478 58.0462 275.521 58.2633 275.608 58.4091C275.694 58.5516 275.805 58.6494 275.941 58.7024C276.08 58.7521 276.231 58.777 276.393 58.777C276.512 58.777 276.617 58.7687 276.706 58.7521C276.796 58.7356 276.865 58.7223 276.915 58.7124L277.184 59.9403C277.097 59.9735 276.975 60.0066 276.816 60.0398C276.657 60.0762 276.458 60.0961 276.219 60.0994C275.828 60.1061 275.463 60.0365 275.125 59.8906C274.787 59.7448 274.514 59.5194 274.305 59.2145C274.096 58.9096 273.992 58.5268 273.992 58.0661V50.5341Z" fill="black"/>
<circle cx="225.5" cy="141.801" r="15" fill="#0400DC"/>
<rect x="21" y="127" width="310" height="30" rx="15" fill="#0400DC"/>
<circle cx="311.5" cy="178.801" r="10" fill="#E2E3F8"/>
<circle cx="225.5" cy="178.801" r="10" fill="#E2E3F8"/>
<circle cx="182.5" cy="178.801" r="10" fill="#E2E3F8"/>
<circle cx="135.5" cy="215.801" r="10" fill="#E2E3F8"/>
<path d="M312.842 100.117V110.299H311.301V101.659H311.241L308.805 103.25V101.778L311.346 100.117H312.842Z" fill="black"/>
<path d="M33.9794 147.299V146.186L37.4247 142.616C37.7926 142.228 38.0959 141.889 38.3345 141.597C38.5765 141.302 38.7571 141.022 38.8764 140.757C38.9957 140.492 39.0554 140.21 39.0554 139.912C39.0554 139.573 38.9759 139.282 38.8168 139.037C38.6577 138.788 38.4406 138.597 38.1655 138.465C37.8904 138.329 37.5805 138.261 37.2358 138.261C36.8712 138.261 36.553 138.336 36.2812 138.485C36.0095 138.634 35.8007 138.844 35.6548 139.116C35.509 139.388 35.4361 139.706 35.4361 140.071H33.9695C33.9695 139.451 34.112 138.909 34.397 138.445C34.6821 137.981 35.0732 137.621 35.5703 137.366C36.0675 137.108 36.6326 136.978 37.2656 136.978C37.9053 136.978 38.4688 137.106 38.956 137.361C39.4465 137.613 39.8293 137.958 40.1044 138.395C40.3795 138.829 40.517 139.32 40.517 139.867C40.517 140.245 40.4458 140.614 40.3033 140.975C40.1641 141.337 39.9205 141.739 39.5724 142.184C39.2244 142.624 38.7405 143.16 38.1207 143.789L36.0973 145.907V145.982H40.6811V147.299H33.9794Z" fill="white"/>
<path d="M85.5241 147.439C84.8414 147.439 84.2315 147.321 83.6946 147.086C83.161 146.85 82.7384 146.524 82.4268 146.106C82.1186 145.685 81.9529 145.198 81.9297 144.644H83.4908C83.5107 144.946 83.6117 145.208 83.794 145.43C83.9796 145.649 84.2216 145.818 84.5199 145.937C84.8182 146.056 85.1496 146.116 85.5142 146.116C85.9152 146.116 86.2699 146.046 86.5781 145.907C86.8897 145.768 87.1333 145.574 87.3089 145.326C87.4846 145.074 87.5724 144.784 87.5724 144.456C87.5724 144.114 87.4846 143.814 87.3089 143.556C87.1366 143.294 86.883 143.088 86.5483 142.939C86.2169 142.79 85.8158 142.716 85.3452 142.716H84.4851V141.463H85.3452C85.723 141.463 86.0545 141.395 86.3395 141.259C86.6278 141.123 86.8532 140.934 87.0156 140.692C87.178 140.447 87.2592 140.16 87.2592 139.832C87.2592 139.517 87.188 139.244 87.0455 139.012C86.9063 138.776 86.7074 138.592 86.4489 138.46C86.1937 138.327 85.892 138.261 85.544 138.261C85.2126 138.261 84.9027 138.322 84.6143 138.445C84.3293 138.564 84.0973 138.737 83.9183 138.962C83.7393 139.184 83.6432 139.451 83.63 139.762H82.1435C82.16 139.212 82.3224 138.728 82.6307 138.311C82.9422 137.893 83.3532 137.567 83.8636 137.331C84.3741 137.096 84.9408 136.978 85.5639 136.978C86.2169 136.978 86.7803 137.106 87.2543 137.361C87.7315 137.613 88.0994 137.949 88.358 138.37C88.6198 138.791 88.7491 139.252 88.7457 139.752C88.7491 140.323 88.59 140.806 88.2685 141.204C87.9503 141.602 87.526 141.869 86.9957 142.005V142.084C87.6719 142.187 88.1955 142.455 88.5668 142.89C88.9413 143.324 89.1269 143.862 89.1236 144.505C89.1269 145.065 88.9711 145.568 88.6562 146.012C88.3447 146.456 87.9188 146.805 87.3786 147.061C86.8383 147.313 86.2202 147.439 85.5241 147.439Z" fill="white"/>
<path d="M130.766 145.311V144.068L135.165 137.117H136.145V138.947H135.523L132.376 143.929V144.008H138.407V145.311H130.766ZM135.593 147.299V144.933L135.603 144.366V137.117H137.06V147.299H135.593Z" fill="white"/>
<path d="M182.34 147.439C181.717 147.439 181.157 147.319 180.66 147.081C180.166 146.839 179.772 146.507 179.477 146.086C179.182 145.665 179.024 145.185 179.004 144.644H180.496C180.532 145.082 180.726 145.442 181.077 145.723C181.429 146.005 181.85 146.146 182.34 146.146C182.731 146.146 183.078 146.056 183.379 145.877C183.684 145.695 183.923 145.445 184.095 145.127C184.271 144.809 184.359 144.446 184.359 144.038C184.359 143.624 184.269 143.254 184.09 142.929C183.911 142.604 183.664 142.349 183.349 142.164C183.038 141.978 182.68 141.884 182.276 141.88C181.967 141.88 181.657 141.933 181.346 142.039C181.034 142.145 180.782 142.285 180.59 142.457L179.183 142.248L179.755 137.117H185.353V138.435H181.033L180.71 141.284H180.769C180.968 141.091 181.232 140.931 181.56 140.801C181.891 140.672 182.246 140.608 182.624 140.608C183.243 140.608 183.795 140.755 184.279 141.05C184.766 141.345 185.149 141.748 185.428 142.258C185.709 142.765 185.848 143.349 185.845 144.008C185.848 144.668 185.699 145.256 185.398 145.773C185.099 146.29 184.685 146.698 184.155 146.996C183.628 147.291 183.023 147.439 182.34 147.439Z" fill="white"/>
<path d="M225.534 147.439C225.08 147.432 224.633 147.349 224.192 147.19C223.754 147.031 223.357 146.766 222.999 146.394C222.641 146.023 222.354 145.524 222.138 144.898C221.926 144.272 221.82 143.489 221.82 142.551C221.82 141.663 221.908 140.874 222.084 140.185C222.263 139.496 222.52 138.914 222.854 138.44C223.189 137.963 223.594 137.6 224.067 137.351C224.541 137.103 225.073 136.978 225.663 136.978C226.27 136.978 226.808 137.098 227.279 137.336C227.75 137.575 228.131 137.905 228.423 138.326C228.718 138.747 228.905 139.225 228.984 139.762H227.468C227.365 139.338 227.161 138.992 226.857 138.723C226.552 138.455 226.154 138.321 225.663 138.321C224.918 138.321 224.336 138.645 223.918 139.295C223.504 139.945 223.295 140.848 223.292 142.005H223.366C223.542 141.716 223.758 141.471 224.013 141.269C224.271 141.063 224.56 140.906 224.878 140.796C225.199 140.684 225.537 140.627 225.892 140.627C226.482 140.627 227.016 140.772 227.493 141.06C227.973 141.345 228.356 141.739 228.641 142.243C228.926 142.747 229.069 143.324 229.069 143.973C229.069 144.623 228.921 145.211 228.626 145.738C228.335 146.265 227.924 146.683 227.393 146.991C226.863 147.296 226.243 147.445 225.534 147.439ZM225.529 146.146C225.92 146.146 226.27 146.05 226.578 145.858C226.886 145.665 227.13 145.407 227.309 145.082C227.488 144.757 227.577 144.394 227.577 143.993C227.577 143.602 227.49 143.246 227.314 142.924C227.142 142.603 226.903 142.348 226.598 142.159C226.296 141.97 225.952 141.875 225.564 141.875C225.269 141.875 224.996 141.932 224.744 142.044C224.495 142.157 224.276 142.313 224.087 142.512C223.898 142.711 223.749 142.939 223.64 143.198C223.534 143.453 223.481 143.723 223.481 144.008C223.481 144.389 223.569 144.742 223.744 145.067C223.923 145.392 224.167 145.654 224.475 145.853C224.787 146.048 225.138 146.146 225.529 146.146Z" fill="white"/>
<path d="M263.322 147.299L267.767 138.51V138.435H262.626V137.117H269.358V138.48L264.928 147.299H263.322Z" fill="white"/>
<path d="M312.42 147.439C311.707 147.439 311.077 147.316 310.531 147.071C309.987 146.825 309.561 146.487 309.253 146.056C308.945 145.626 308.792 145.135 308.795 144.585C308.792 144.154 308.88 143.758 309.059 143.397C309.241 143.032 309.488 142.729 309.8 142.487C310.111 142.242 310.459 142.086 310.844 142.019V141.96C310.337 141.837 309.931 141.565 309.626 141.144C309.321 140.724 309.17 140.24 309.173 139.693C309.17 139.172 309.308 138.708 309.586 138.301C309.868 137.89 310.254 137.567 310.744 137.331C311.235 137.096 311.793 136.978 312.42 136.978C313.04 136.978 313.593 137.098 314.08 137.336C314.571 137.572 314.957 137.895 315.239 138.306C315.52 138.713 315.663 139.176 315.666 139.693C315.663 140.24 315.507 140.724 315.199 141.144C314.891 141.565 314.49 141.837 313.996 141.96V142.019C314.377 142.086 314.72 142.242 315.025 142.487C315.333 142.729 315.578 143.032 315.761 143.397C315.946 143.758 316.041 144.154 316.044 144.585C316.041 145.135 315.885 145.626 315.577 146.056C315.268 146.487 314.841 146.825 314.294 147.071C313.75 147.316 313.126 147.439 312.42 147.439ZM312.42 146.181C312.841 146.181 313.205 146.111 313.513 145.972C313.822 145.829 314.06 145.632 314.229 145.38C314.398 145.125 314.485 144.827 314.488 144.485C314.485 144.131 314.392 143.818 314.21 143.546C314.031 143.274 313.787 143.06 313.479 142.904C313.17 142.749 312.817 142.671 312.42 142.671C312.019 142.671 311.662 142.749 311.351 142.904C311.039 143.06 310.794 143.274 310.615 143.546C310.436 143.818 310.348 144.131 310.352 144.485C310.348 144.827 310.429 145.125 310.595 145.38C310.764 145.632 311.004 145.829 311.316 145.972C311.628 146.111 311.996 146.181 312.42 146.181ZM312.42 141.443C312.758 141.443 313.058 141.375 313.32 141.239C313.581 141.103 313.787 140.914 313.936 140.672C314.089 140.43 314.166 140.147 314.17 139.822C314.166 139.504 314.09 139.225 313.941 138.987C313.795 138.748 313.591 138.564 313.33 138.435C313.068 138.302 312.764 138.236 312.42 138.236C312.068 138.236 311.76 138.302 311.495 138.435C311.233 138.564 311.029 138.748 310.884 138.987C310.738 139.225 310.666 139.504 310.67 139.822C310.666 140.147 310.739 140.43 310.888 140.672C311.038 140.914 311.243 141.103 311.505 141.239C311.77 141.375 312.075 141.443 312.42 141.443Z" fill="white"/>
<path d="M37.3651 173.978C37.8191 173.982 38.2666 174.064 38.7074 174.227C39.1482 174.389 39.5459 174.654 39.9006 175.022C40.2585 175.39 40.5436 175.887 40.7557 176.514C40.9711 177.137 41.0805 177.912 41.0838 178.841C41.0838 179.732 40.9943 180.526 40.8153 181.222C40.6364 181.915 40.3795 182.5 40.0447 182.977C39.7133 183.454 39.3106 183.817 38.8366 184.066C38.3627 184.314 37.8291 184.439 37.2358 184.439C36.6293 184.439 36.0907 184.319 35.62 184.081C35.1494 183.842 34.7666 183.512 34.4716 183.091C34.1766 182.667 33.9927 182.18 33.9197 181.63H35.4361C35.5355 182.067 35.7377 182.422 36.0426 182.693C36.3509 182.962 36.7486 183.096 37.2358 183.096C37.9815 183.096 38.5632 182.771 38.9808 182.122C39.3984 181.469 39.6089 180.557 39.6122 179.387H39.5327C39.3603 179.672 39.1449 179.918 38.8864 180.123C38.6312 180.329 38.3445 180.488 38.0263 180.6C37.7081 180.713 37.3684 180.769 37.0071 180.769C36.4205 180.769 35.8868 180.625 35.4062 180.337C34.9257 180.049 34.5429 179.653 34.2578 179.149C33.9728 178.645 33.8303 178.07 33.8303 177.424C33.8303 176.781 33.9761 176.197 34.2678 175.674C34.5627 175.15 34.9737 174.736 35.5007 174.431C36.031 174.122 36.6525 173.972 37.3651 173.978ZM37.37 175.271C36.9822 175.271 36.6326 175.367 36.321 175.559C36.0128 175.748 35.7692 176.005 35.5902 176.33C35.4112 176.651 35.3217 177.009 35.3217 177.404C35.3217 177.798 35.4079 178.156 35.5803 178.478C35.7559 178.796 35.9946 179.049 36.2962 179.238C36.6011 179.424 36.9491 179.517 37.3402 179.517C37.6319 179.517 37.9036 179.46 38.1555 179.348C38.4074 179.235 38.6278 179.079 38.8168 178.88C39.0057 178.678 39.1532 178.449 39.2592 178.194C39.3653 177.939 39.4183 177.671 39.4183 177.389C39.4183 177.014 39.3288 176.666 39.1499 176.345C38.9742 176.023 38.7322 175.765 38.424 175.569C38.1158 175.37 37.7644 175.271 37.37 175.271Z" fill="black"/>
<path d="M82.8423 174.117V184.299H81.3011V175.659H81.2415L78.8054 177.25V175.778L81.3459 174.117H82.8423ZM89.1413 184.468C88.3558 184.465 87.6847 184.258 87.1278 183.847C86.571 183.436 86.1451 182.838 85.8501 182.052C85.5552 181.267 85.4077 180.32 85.4077 179.213C85.4077 178.11 85.5552 177.167 85.8501 176.385C86.1484 175.602 86.576 175.006 87.1328 174.595C87.6929 174.184 88.3625 173.978 89.1413 173.978C89.9202 173.978 90.5881 174.185 91.1449 174.6C91.7017 175.011 92.1276 175.607 92.4226 176.39C92.7209 177.168 92.87 178.11 92.87 179.213C92.87 180.324 92.7225 181.272 92.4276 182.057C92.1326 182.839 91.7067 183.438 91.1499 183.852C90.593 184.263 89.9235 184.468 89.1413 184.468ZM89.1413 183.141C89.8307 183.141 90.3693 182.805 90.7571 182.132C91.1482 181.459 91.3438 180.486 91.3438 179.213C91.3438 178.368 91.2543 177.654 91.0753 177.071C90.8996 176.484 90.6461 176.04 90.3146 175.738C89.9865 175.433 89.5954 175.281 89.1413 175.281C88.4553 175.281 87.9167 175.619 87.5256 176.295C87.1345 176.971 86.9373 177.944 86.9339 179.213C86.9339 180.062 87.0218 180.779 87.1974 181.366C87.3764 181.949 87.63 182.392 87.9581 182.693C88.2862 182.992 88.6806 183.141 89.1413 183.141Z" fill="black"/>
<path d="M132.842 174.117V184.299H131.301V175.659H131.241L128.805 177.25V175.778L131.346 174.117H132.842ZM139.46 174.117V184.299H137.918V175.659H137.859L135.423 177.25V175.778L137.963 174.117H139.46Z" fill="black"/>
<path d="M179.842 174.117V184.299H178.301V175.659H178.241L175.805 177.25V175.778L178.346 174.117H179.842ZM182.597 184.299V183.186L186.042 179.616C186.41 179.228 186.713 178.889 186.952 178.597C187.194 178.302 187.374 178.022 187.494 177.757C187.613 177.492 187.673 177.21 187.673 176.912C187.673 176.573 187.593 176.282 187.434 176.037C187.275 175.788 187.058 175.597 186.783 175.465C186.508 175.329 186.198 175.261 185.853 175.261C185.488 175.261 185.17 175.336 184.898 175.485C184.627 175.634 184.418 175.844 184.272 176.116C184.126 176.388 184.053 176.706 184.053 177.071H182.587C182.587 176.451 182.729 175.909 183.014 175.445C183.299 174.981 183.69 174.621 184.188 174.366C184.685 174.108 185.25 173.978 185.883 173.978C186.522 173.978 187.086 174.106 187.573 174.361C188.064 174.613 188.446 174.958 188.722 175.395C188.997 175.829 189.134 176.32 189.134 176.867C189.134 177.245 189.063 177.614 188.92 177.975C188.781 178.337 188.538 178.739 188.19 179.184C187.842 179.624 187.358 180.16 186.738 180.789L184.714 182.907V182.982H189.298V184.299H182.597Z" fill="#0400DC"/>
<path d="M222.842 174.117V184.299H221.301V175.659H221.241L218.805 177.25V175.778L221.346 174.117H222.842ZM229.141 184.439C228.459 184.439 227.849 184.321 227.312 184.086C226.778 183.85 226.356 183.524 226.044 183.106C225.736 182.685 225.57 182.198 225.547 181.644H227.108C227.128 181.946 227.229 182.208 227.411 182.43C227.597 182.649 227.839 182.818 228.137 182.937C228.435 183.056 228.767 183.116 229.131 183.116C229.532 183.116 229.887 183.046 230.195 182.907C230.507 182.768 230.75 182.574 230.926 182.326C231.102 182.074 231.19 181.784 231.19 181.456C231.19 181.114 231.102 180.814 230.926 180.556C230.754 180.294 230.5 180.088 230.165 179.939C229.834 179.79 229.433 179.716 228.962 179.716H228.102V178.463H228.962C229.34 178.463 229.672 178.395 229.957 178.259C230.245 178.123 230.47 177.934 230.633 177.692C230.795 177.447 230.876 177.16 230.876 176.832C230.876 176.517 230.805 176.244 230.663 176.012C230.523 175.776 230.325 175.592 230.066 175.46C229.811 175.327 229.509 175.261 229.161 175.261C228.83 175.261 228.52 175.322 228.232 175.445C227.946 175.564 227.714 175.737 227.536 175.962C227.357 176.184 227.26 176.451 227.247 176.762H225.761C225.777 176.212 225.94 175.728 226.248 175.311C226.559 174.893 226.97 174.567 227.481 174.331C227.991 174.096 228.558 173.978 229.181 173.978C229.834 173.978 230.397 174.106 230.871 174.361C231.349 174.613 231.717 174.949 231.975 175.37C232.237 175.791 232.366 176.252 232.363 176.752C232.366 177.323 232.207 177.806 231.886 178.204C231.567 178.602 231.143 178.869 230.613 179.005V179.084C231.289 179.187 231.813 179.455 232.184 179.89C232.558 180.324 232.744 180.862 232.741 181.505C232.744 182.065 232.588 182.568 232.273 183.012C231.962 183.456 231.536 183.805 230.996 184.061C230.455 184.313 229.837 184.439 229.141 184.439Z" fill="#0400DC"/>
<path d="M263.842 174.117V184.299H262.301V175.659H262.241L259.805 177.25V175.778L262.346 174.117H263.842ZM266.383 182.311V181.068L270.783 174.117H271.762V175.947H271.141L267.994 180.929V181.008H274.024V182.311H266.383ZM271.21 184.299V181.933L271.22 181.366V174.117H272.677V184.299H271.21Z" fill="black"/>
<path d="M308.842 174.117V184.299H307.301V175.659H307.241L304.805 177.25V175.778L307.346 174.117H308.842ZM314.957 184.439C314.334 184.439 313.774 184.319 313.277 184.081C312.783 183.839 312.389 183.507 312.094 183.086C311.799 182.665 311.641 182.185 311.621 181.644H313.113C313.149 182.082 313.343 182.442 313.695 182.723C314.046 183.005 314.467 183.146 314.957 183.146C315.348 183.146 315.695 183.056 315.996 182.877C316.301 182.695 316.54 182.445 316.712 182.127C316.888 181.809 316.976 181.446 316.976 181.038C316.976 180.624 316.886 180.254 316.707 179.929C316.528 179.604 316.281 179.349 315.967 179.164C315.655 178.978 315.297 178.884 314.893 178.88C314.585 178.88 314.275 178.933 313.963 179.039C313.652 179.145 313.4 179.285 313.207 179.457L311.8 179.248L312.372 174.117H317.97V175.435H313.65L313.327 178.284H313.386C313.585 178.091 313.849 177.931 314.177 177.801C314.508 177.672 314.863 177.608 315.241 177.608C315.861 177.608 316.412 177.755 316.896 178.05C317.384 178.345 317.766 178.748 318.045 179.258C318.326 179.765 318.466 180.349 318.462 181.008C318.466 181.668 318.317 182.256 318.015 182.773C317.717 183.29 317.302 183.698 316.772 183.996C316.245 184.291 315.64 184.439 314.957 184.439Z" fill="#0400DC"/>
<path d="M34.8423 211.117V221.299H33.3011V212.659H33.2415L30.8054 214.25V212.778L33.3459 211.117H34.8423ZM41.1513 221.439C40.6972 221.432 40.2498 221.349 39.8089 221.19C39.3714 221.031 38.9737 220.766 38.6158 220.394C38.2578 220.023 37.9711 219.524 37.7557 218.898C37.5436 218.272 37.4375 217.489 37.4375 216.551C37.4375 215.663 37.5253 214.874 37.701 214.185C37.88 213.496 38.1368 212.914 38.4716 212.44C38.8063 211.963 39.2107 211.6 39.6847 211.351C40.1586 211.103 40.6906 210.978 41.2805 210.978C41.8871 210.978 42.4257 211.098 42.8963 211.336C43.367 211.575 43.7481 211.905 44.0398 212.326C44.3348 212.747 44.522 213.225 44.6016 213.762H43.0852C42.9825 213.338 42.7786 212.992 42.4737 212.723C42.1688 212.455 41.7711 212.321 41.2805 212.321C40.5348 212.321 39.9531 212.645 39.5355 213.295C39.1212 213.945 38.9124 214.848 38.9091 216.005H38.9837C39.1593 215.716 39.3748 215.471 39.63 215.269C39.8885 215.063 40.1768 214.906 40.495 214.796C40.8165 214.684 41.1546 214.627 41.5092 214.627C42.0992 214.627 42.6328 214.772 43.1101 215.06C43.5907 215.345 43.9735 215.739 44.2585 216.243C44.5436 216.747 44.6861 217.324 44.6861 217.973C44.6861 218.623 44.5386 219.211 44.2436 219.738C43.9519 220.265 43.541 220.683 43.0107 220.991C42.4804 221.296 41.8606 221.445 41.1513 221.439ZM41.1463 220.146C41.5374 220.146 41.8871 220.05 42.1953 219.858C42.5036 219.665 42.7472 219.407 42.9261 219.082C43.1051 218.757 43.1946 218.394 43.1946 217.993C43.1946 217.602 43.1068 217.246 42.9311 216.924C42.7588 216.603 42.5201 216.348 42.2152 216.159C41.9136 215.97 41.5689 215.875 41.1811 215.875C40.8861 215.875 40.6127 215.932 40.3608 216.044C40.1122 216.157 39.8935 216.313 39.7045 216.512C39.5156 216.711 39.3665 216.939 39.2571 217.198C39.151 217.453 39.098 217.723 39.098 218.008C39.098 218.389 39.1858 218.742 39.3615 219.067C39.5405 219.392 39.7841 219.654 40.0923 219.853C40.4039 220.048 40.7552 220.146 41.1463 220.146Z" fill="black"/>
<path d="M82.8423 211.117V221.299H81.3011V212.659H81.2415L78.8054 214.25V212.778L81.3459 211.117H82.8423ZM85.9396 221.299L90.3842 212.51V212.435H85.2436V211.117H91.9751V212.48L87.5455 221.299H85.9396Z" fill="black"/>
<path d="M132.842 211.117V221.299H131.301V212.659H131.241L128.805 214.25V212.778L131.346 211.117H132.842ZM139.037 221.439C138.324 221.439 137.695 221.316 137.148 221.071C136.604 220.825 136.178 220.487 135.87 220.056C135.562 219.626 135.409 219.135 135.413 218.585C135.409 218.154 135.497 217.758 135.676 217.397C135.858 217.032 136.105 216.729 136.417 216.487C136.728 216.242 137.076 216.086 137.461 216.019V215.96C136.954 215.837 136.548 215.565 136.243 215.144C135.938 214.724 135.787 214.24 135.79 213.693C135.787 213.172 135.925 212.708 136.203 212.301C136.485 211.89 136.871 211.567 137.362 211.331C137.852 211.096 138.411 210.978 139.037 210.978C139.657 210.978 140.21 211.098 140.697 211.336C141.188 211.572 141.574 211.895 141.856 212.306C142.138 212.713 142.28 213.176 142.283 213.693C142.28 214.24 142.124 214.724 141.816 215.144C141.508 215.565 141.107 215.837 140.613 215.96V216.019C140.994 216.086 141.337 216.242 141.642 216.487C141.95 216.729 142.196 217.032 142.378 217.397C142.563 217.758 142.658 218.154 142.661 218.585C142.658 219.135 142.502 219.626 142.194 220.056C141.886 220.487 141.458 220.825 140.911 221.071C140.368 221.316 139.743 221.439 139.037 221.439ZM139.037 220.181C139.458 220.181 139.822 220.111 140.131 219.972C140.439 219.829 140.678 219.632 140.847 219.38C141.016 219.125 141.102 218.827 141.105 218.485C141.102 218.131 141.009 217.818 140.827 217.546C140.648 217.274 140.404 217.06 140.096 216.904C139.788 216.749 139.435 216.671 139.037 216.671C138.636 216.671 138.28 216.749 137.968 216.904C137.656 217.06 137.411 217.274 137.232 217.546C137.053 217.818 136.965 218.131 136.969 218.485C136.965 218.827 137.047 219.125 137.212 219.38C137.381 219.632 137.622 219.829 137.933 219.972C138.245 220.111 138.613 220.181 139.037 220.181ZM139.037 215.443C139.375 215.443 139.675 215.375 139.937 215.239C140.199 215.103 140.404 214.914 140.553 214.672C140.706 214.43 140.784 214.147 140.787 213.822C140.784 213.504 140.707 213.225 140.558 212.987C140.412 212.748 140.209 212.564 139.947 212.435C139.685 212.302 139.382 212.236 139.037 212.236C138.686 212.236 138.377 212.302 138.112 212.435C137.85 212.564 137.647 212.748 137.501 212.987C137.355 213.225 137.284 213.504 137.287 213.822C137.284 214.147 137.357 214.43 137.506 214.672C137.655 214.914 137.86 215.103 138.122 215.239C138.387 215.375 138.692 215.443 139.037 215.443Z" fill="#0400DC"/>
<path d="M179.842 211.117V221.299H178.301V212.659H178.241L175.805 214.25V212.778L178.346 211.117H179.842ZM185.982 210.978C186.436 210.982 186.884 211.064 187.325 211.227C187.765 211.389 188.163 211.654 188.518 212.022C188.876 212.39 189.161 212.887 189.373 213.514C189.588 214.137 189.698 214.912 189.701 215.841C189.701 216.732 189.612 217.526 189.433 218.222C189.254 218.915 188.997 219.5 188.662 219.977C188.33 220.454 187.928 220.817 187.454 221.066C186.98 221.314 186.446 221.439 185.853 221.439C185.246 221.439 184.708 221.319 184.237 221.081C183.767 220.842 183.384 220.512 183.089 220.091C182.794 219.667 182.61 219.18 182.537 218.63H184.053C184.153 219.067 184.355 219.422 184.66 219.693C184.968 219.962 185.366 220.096 185.853 220.096C186.599 220.096 187.18 219.771 187.598 219.122C188.016 218.469 188.226 217.557 188.229 216.387H188.15C187.978 216.672 187.762 216.918 187.504 217.123C187.248 217.329 186.962 217.488 186.643 217.6C186.325 217.713 185.986 217.769 185.624 217.769C185.038 217.769 184.504 217.625 184.023 217.337C183.543 217.049 183.16 216.653 182.875 216.149C182.59 215.645 182.447 215.07 182.447 214.424C182.447 213.781 182.593 213.197 182.885 212.674C183.18 212.15 183.591 211.736 184.118 211.431C184.648 211.122 185.27 210.972 185.982 210.978ZM185.987 212.271C185.599 212.271 185.25 212.367 184.938 212.559C184.63 212.748 184.386 213.005 184.207 213.33C184.028 213.651 183.939 214.009 183.939 214.404C183.939 214.798 184.025 215.156 184.197 215.478C184.373 215.796 184.612 216.049 184.913 216.238C185.218 216.424 185.566 216.517 185.957 216.517C186.249 216.517 186.521 216.46 186.773 216.348C187.025 216.235 187.245 216.079 187.434 215.88C187.623 215.678 187.77 215.449 187.876 215.194C187.982 214.939 188.036 214.671 188.036 214.389C188.036 214.014 187.946 213.666 187.767 213.345C187.591 213.023 187.349 212.765 187.041 212.569C186.733 212.37 186.382 212.271 185.987 212.271Z" fill="black"/>
<path d="M218.979 221.299V220.186L222.425 216.616C222.793 216.228 223.096 215.889 223.335 215.597C223.576 215.302 223.757 215.022 223.876 214.757C223.996 214.492 224.055 214.21 224.055 213.912C224.055 213.573 223.976 213.282 223.817 213.037C223.658 212.788 223.441 212.597 223.165 212.465C222.89 212.329 222.58 212.261 222.236 212.261C221.871 212.261 221.553 212.336 221.281 212.485C221.009 212.634 220.801 212.844 220.655 213.116C220.509 213.388 220.436 213.706 220.436 214.071H218.969C218.969 213.451 219.112 212.909 219.397 212.445C219.682 211.981 220.073 211.621 220.57 211.366C221.067 211.108 221.633 210.978 222.266 210.978C222.905 210.978 223.469 211.106 223.956 211.361C224.446 211.613 224.829 211.958 225.104 212.395C225.379 212.829 225.517 213.32 225.517 213.867C225.517 214.245 225.446 214.614 225.303 214.975C225.164 215.337 224.92 215.739 224.572 216.184C224.224 216.624 223.741 217.16 223.121 217.789L221.097 219.907V219.982H225.681V221.299H218.979ZM231.11 221.468C230.325 221.465 229.653 221.258 229.097 220.847C228.54 220.436 228.114 219.838 227.819 219.052C227.524 218.267 227.376 217.32 227.376 216.213C227.376 215.11 227.524 214.167 227.819 213.385C228.117 212.602 228.545 212.006 229.102 211.595C229.662 211.184 230.331 210.978 231.11 210.978C231.889 210.978 232.557 211.185 233.114 211.6C233.67 212.011 234.096 212.607 234.391 213.39C234.69 214.168 234.839 215.11 234.839 216.213C234.839 217.324 234.691 218.272 234.396 219.057C234.101 219.839 233.675 220.438 233.119 220.852C232.562 221.263 231.892 221.468 231.11 221.468ZM231.11 220.141C231.799 220.141 232.338 219.805 232.726 219.132C233.117 218.459 233.312 217.486 233.312 216.213C233.312 215.368 233.223 214.654 233.044 214.071C232.868 213.484 232.615 213.04 232.283 212.738C231.955 212.433 231.564 212.281 231.11 212.281C230.424 212.281 229.885 212.619 229.494 213.295C229.103 213.971 228.906 214.944 228.903 216.213C228.903 217.062 228.991 217.779 229.166 218.366C229.345 218.949 229.599 219.392 229.927 219.693C230.255 219.992 230.649 220.141 231.11 220.141Z" fill="black"/>
<path d="M259.979 221.299V220.186L263.425 216.616C263.793 216.228 264.096 215.889 264.335 215.597C264.576 215.302 264.757 215.022 264.876 214.757C264.996 214.492 265.055 214.21 265.055 213.912C265.055 213.573 264.976 213.282 264.817 213.037C264.658 212.788 264.441 212.597 264.165 212.465C263.89 212.329 263.58 212.261 263.236 212.261C262.871 212.261 262.553 212.336 262.281 212.485C262.009 212.634 261.801 212.844 261.655 213.116C261.509 213.388 261.436 213.706 261.436 214.071H259.969C259.969 213.451 260.112 212.909 260.397 212.445C260.682 211.981 261.073 211.621 261.57 211.366C262.067 211.108 262.633 210.978 263.266 210.978C263.905 210.978 264.469 211.106 264.956 211.361C265.446 211.613 265.829 211.958 266.104 212.395C266.379 212.829 266.517 213.32 266.517 213.867C266.517 214.245 266.446 214.614 266.303 214.975C266.164 215.337 265.92 215.739 265.572 216.184C265.224 216.624 264.741 217.16 264.121 217.789L262.097 219.907V219.982H266.681V221.299H259.979ZM272.428 211.117V221.299H270.887V212.659H270.827L268.391 214.25V212.778L270.932 211.117H272.428Z" fill="black"/>
<path d="M304.979 221.299V220.186L308.425 216.616C308.793 216.228 309.096 215.889 309.335 215.597C309.576 215.302 309.757 215.022 309.876 214.757C309.996 214.492 310.055 214.21 310.055 213.912C310.055 213.573 309.976 213.282 309.817 213.037C309.658 212.788 309.441 212.597 309.165 212.465C308.89 212.329 308.58 212.261 308.236 212.261C307.871 212.261 307.553 212.336 307.281 212.485C307.009 212.634 306.801 212.844 306.655 213.116C306.509 213.388 306.436 213.706 306.436 214.071H304.969C304.969 213.451 305.112 212.909 305.397 212.445C305.682 211.981 306.073 211.621 306.57 211.366C307.067 211.108 307.633 210.978 308.266 210.978C308.905 210.978 309.469 211.106 309.956 211.361C310.446 211.613 310.829 211.958 311.104 212.395C311.379 212.829 311.517 213.32 311.517 213.867C311.517 214.245 311.446 214.614 311.303 214.975C311.164 215.337 310.92 215.739 310.572 216.184C310.224 216.624 309.741 217.16 309.121 217.789L307.097 219.907V219.982H311.681V221.299H304.979ZM313.565 221.299V220.186L317.011 216.616C317.379 216.228 317.682 215.889 317.92 215.597C318.162 215.302 318.343 215.022 318.462 214.757C318.582 214.492 318.641 214.21 318.641 213.912C318.641 213.573 318.562 213.282 318.403 213.037C318.244 212.788 318.027 212.597 317.751 212.465C317.476 212.329 317.166 212.261 316.822 212.261C316.457 212.261 316.139 212.336 315.867 212.485C315.595 212.634 315.387 212.844 315.241 213.116C315.095 213.388 315.022 213.706 315.022 214.071H313.555C313.555 213.451 313.698 212.909 313.983 212.445C314.268 211.981 314.659 211.621 315.156 211.366C315.653 211.108 316.219 210.978 316.852 210.978C317.491 210.978 318.055 211.106 318.542 211.361C319.032 211.613 319.415 211.958 319.69 212.395C319.965 212.829 320.103 213.32 320.103 213.867C320.103 214.245 320.032 214.614 319.889 214.975C319.75 215.337 319.506 215.739 319.158 216.184C318.81 216.624 318.326 217.16 317.707 217.789L315.683 219.907V219.982H320.267V221.299H313.565Z" fill="black"/>
<path d="M31.9794 258.299V257.186L35.4247 253.616C35.7926 253.228 36.0959 252.889 36.3345 252.597C36.5765 252.302 36.7571 252.022 36.8764 251.757C36.9957 251.492 37.0554 251.21 37.0554 250.912C37.0554 250.573 36.9759 250.282 36.8168 250.037C36.6577 249.788 36.4406 249.597 36.1655 249.465C35.8904 249.329 35.5805 249.261 35.2358 249.261C34.8712 249.261 34.553 249.336 34.2812 249.485C34.0095 249.634 33.8007 249.844 33.6548 250.116C33.509 250.388 33.4361 250.706 33.4361 251.071H31.9695C31.9695 250.451 32.112 249.909 32.397 249.445C32.6821 248.981 33.0732 248.621 33.5703 248.366C34.0675 248.108 34.6326 247.978 35.2656 247.978C35.9053 247.978 36.4688 248.106 36.956 248.361C37.4465 248.613 37.8293 248.958 38.1044 249.395C38.3795 249.829 38.517 250.32 38.517 250.867C38.517 251.245 38.4458 251.614 38.3033 251.975C38.1641 252.337 37.9205 252.739 37.5724 253.184C37.2244 253.624 36.7405 254.16 36.1207 254.789L34.0973 256.907V256.982H38.6811V258.299H31.9794ZM44.1101 258.439C43.4273 258.439 42.8175 258.321 42.2805 258.086C41.7469 257.85 41.3243 257.524 41.0128 257.106C40.7045 256.685 40.5388 256.198 40.5156 255.644H42.0767C42.0966 255.946 42.1977 256.208 42.38 256.43C42.5656 256.649 42.8075 256.818 43.1058 256.937C43.4041 257.056 43.7356 257.116 44.1001 257.116C44.5012 257.116 44.8558 257.046 45.1641 256.907C45.4756 256.768 45.7192 256.574 45.8949 256.326C46.0705 256.074 46.1584 255.784 46.1584 255.456C46.1584 255.114 46.0705 254.814 45.8949 254.556C45.7225 254.294 45.469 254.088 45.1342 253.939C44.8028 253.79 44.4018 253.716 43.9311 253.716H43.071V252.463H43.9311C44.3089 252.463 44.6404 252.395 44.9254 252.259C45.2138 252.123 45.4392 251.934 45.6016 251.692C45.764 251.447 45.8452 251.16 45.8452 250.832C45.8452 250.517 45.7739 250.244 45.6314 250.012C45.4922 249.776 45.2933 249.592 45.0348 249.46C44.7796 249.327 44.478 249.261 44.13 249.261C43.7985 249.261 43.4886 249.322 43.2003 249.445C42.9152 249.564 42.6832 249.737 42.5043 249.962C42.3253 250.184 42.2292 250.451 42.2159 250.762H40.7294C40.746 250.212 40.9084 249.728 41.2166 249.311C41.5282 248.893 41.9392 248.567 42.4496 248.331C42.96 248.096 43.5268 247.978 44.1499 247.978C44.8028 247.978 45.3662 248.106 45.8402 248.361C46.3175 248.613 46.6854 248.949 46.9439 249.37C47.2057 249.791 47.335 250.252 47.3317 250.752C47.335 251.323 47.1759 251.806 46.8544 252.204C46.5362 252.602 46.112 252.869 45.5817 253.005V253.084C46.2578 253.187 46.7815 253.455 47.1527 253.89C47.5272 254.324 47.7128 254.862 47.7095 255.505C47.7128 256.065 47.5571 256.568 47.2422 257.012C46.9306 257.456 46.5047 257.805 45.9645 258.061C45.4242 258.313 44.8061 258.439 44.1101 258.439Z" fill="black"/>
<path d="M78.9794 258.299V257.186L82.4247 253.616C82.7926 253.228 83.0959 252.889 83.3345 252.597C83.5765 252.302 83.7571 252.022 83.8764 251.757C83.9957 251.492 84.0554 251.21 84.0554 250.912C84.0554 250.573 83.9759 250.282 83.8168 250.037C83.6577 249.788 83.4406 249.597 83.1655 249.465C82.8904 249.329 82.5805 249.261 82.2358 249.261C81.8712 249.261 81.553 249.336 81.2812 249.485C81.0095 249.634 80.8007 249.844 80.6548 250.116C80.509 250.388 80.4361 250.706 80.4361 251.071H78.9695C78.9695 250.451 79.112 249.909 79.397 249.445C79.6821 248.981 80.0732 248.621 80.5703 248.366C81.0675 248.108 81.6326 247.978 82.2656 247.978C82.9053 247.978 83.4688 248.106 83.956 248.361C84.4465 248.613 84.8293 248.958 85.1044 249.395C85.3795 249.829 85.517 250.32 85.517 250.867C85.517 251.245 85.4458 251.614 85.3033 251.975C85.1641 252.337 84.9205 252.739 84.5724 253.184C84.2244 253.624 83.7405 254.16 83.1207 254.789L81.0973 256.907V256.982H85.6811V258.299H78.9794ZM87.1328 256.311V255.068L91.5327 248.117H92.5121V249.947H91.8906L88.7436 254.929V255.008H94.7741V256.311H87.1328ZM91.9602 258.299V255.933L91.9702 255.366V248.117H93.4268V258.299H91.9602Z" fill="black"/>
<path d="M128.979 258.299V257.186L132.425 253.616C132.793 253.228 133.096 252.889 133.335 252.597C133.576 252.302 133.757 252.022 133.876 251.757C133.996 251.492 134.055 251.21 134.055 250.912C134.055 250.573 133.976 250.282 133.817 250.037C133.658 249.788 133.441 249.597 133.165 249.465C132.89 249.329 132.58 249.261 132.236 249.261C131.871 249.261 131.553 249.336 131.281 249.485C131.009 249.634 130.801 249.844 130.655 250.116C130.509 250.388 130.436 250.706 130.436 251.071H128.969C128.969 250.451 129.112 249.909 129.397 249.445C129.682 248.981 130.073 248.621 130.57 248.366C131.067 248.108 131.633 247.978 132.266 247.978C132.905 247.978 133.469 248.106 133.956 248.361C134.446 248.613 134.829 248.958 135.104 249.395C135.379 249.829 135.517 250.32 135.517 250.867C135.517 251.245 135.446 251.614 135.303 251.975C135.164 252.337 134.92 252.739 134.572 253.184C134.224 253.624 133.741 254.16 133.121 254.789L131.097 256.907V256.982H135.681V258.299H128.979ZM140.926 258.439C140.303 258.439 139.743 258.319 139.246 258.081C138.752 257.839 138.357 257.507 138.062 257.086C137.768 256.665 137.61 256.185 137.59 255.644H139.082C139.118 256.082 139.312 256.442 139.663 256.723C140.015 257.005 140.436 257.146 140.926 257.146C141.317 257.146 141.664 257.056 141.965 256.877C142.27 256.695 142.509 256.445 142.681 256.127C142.857 255.809 142.945 255.446 142.945 255.038C142.945 254.624 142.855 254.254 142.676 253.929C142.497 253.604 142.25 253.349 141.935 253.164C141.624 252.978 141.266 252.884 140.862 252.88C140.553 252.88 140.243 252.933 139.932 253.039C139.62 253.145 139.368 253.285 139.176 253.457L137.769 253.248L138.341 248.117H143.939V249.435H139.619L139.295 252.284H139.355C139.554 252.091 139.817 251.931 140.146 251.801C140.477 251.672 140.832 251.608 141.21 251.608C141.829 251.608 142.381 251.755 142.865 252.05C143.352 252.345 143.735 252.748 144.013 253.258C144.295 253.765 144.434 254.349 144.431 255.008C144.434 255.668 144.285 256.256 143.984 256.773C143.685 257.29 143.271 257.698 142.741 257.996C142.214 258.291 141.609 258.439 140.926 258.439Z" fill="black"/>
<path d="M175.979 258.299V257.186L179.425 253.616C179.793 253.228 180.096 252.889 180.335 252.597C180.576 252.302 180.757 252.022 180.876 251.757C180.996 251.492 181.055 251.21 181.055 250.912C181.055 250.573 180.976 250.282 180.817 250.037C180.658 249.788 180.441 249.597 180.165 249.465C179.89 249.329 179.58 249.261 179.236 249.261C178.871 249.261 178.553 249.336 178.281 249.485C178.009 249.634 177.801 249.844 177.655 250.116C177.509 250.388 177.436 250.706 177.436 251.071H175.969C175.969 250.451 176.112 249.909 176.397 249.445C176.682 248.981 177.073 248.621 177.57 248.366C178.067 248.108 178.633 247.978 179.266 247.978C179.905 247.978 180.469 248.106 180.956 248.361C181.446 248.613 181.829 248.958 182.104 249.395C182.379 249.829 182.517 250.32 182.517 250.867C182.517 251.245 182.446 251.614 182.303 251.975C182.164 252.337 181.92 252.739 181.572 253.184C181.224 253.624 180.741 254.16 180.121 254.789L178.097 256.907V256.982H182.681V258.299H175.979ZM188.12 258.439C187.666 258.432 187.219 258.349 186.778 258.19C186.34 258.031 185.942 257.766 185.585 257.394C185.227 257.023 184.94 256.524 184.724 255.898C184.512 255.272 184.406 254.489 184.406 253.551C184.406 252.663 184.494 251.874 184.67 251.185C184.849 250.496 185.106 249.914 185.44 249.44C185.775 248.963 186.179 248.6 186.653 248.351C187.127 248.103 187.659 247.978 188.249 247.978C188.856 247.978 189.394 248.098 189.865 248.336C190.336 248.575 190.717 248.905 191.009 249.326C191.304 249.747 191.491 250.225 191.57 250.762H190.054C189.951 250.338 189.747 249.992 189.442 249.723C189.138 249.455 188.74 249.321 188.249 249.321C187.504 249.321 186.922 249.645 186.504 250.295C186.09 250.945 185.881 251.848 185.878 253.005H185.952C186.128 252.716 186.344 252.471 186.599 252.269C186.857 252.063 187.146 251.906 187.464 251.796C187.785 251.684 188.123 251.627 188.478 251.627C189.068 251.627 189.602 251.772 190.079 252.06C190.559 252.345 190.942 252.739 191.227 253.243C191.512 253.747 191.655 254.324 191.655 254.973C191.655 255.623 191.507 256.211 191.212 256.738C190.921 257.265 190.51 257.683 189.979 257.991C189.449 258.296 188.829 258.445 188.12 258.439ZM188.115 257.146C188.506 257.146 188.856 257.05 189.164 256.858C189.472 256.665 189.716 256.407 189.895 256.082C190.074 255.757 190.163 255.394 190.163 254.993C190.163 254.602 190.076 254.246 189.9 253.924C189.728 253.603 189.489 253.348 189.184 253.159C188.882 252.97 188.538 252.875 188.15 252.875C187.855 252.875 187.581 252.932 187.33 253.044C187.081 253.157 186.862 253.313 186.673 253.512C186.484 253.711 186.335 253.939 186.226 254.198C186.12 254.453 186.067 254.723 186.067 255.008C186.067 255.389 186.155 255.742 186.33 256.067C186.509 256.392 186.753 256.654 187.061 256.853C187.373 257.048 187.724 257.146 188.115 257.146Z" fill="black"/>
<path d="M218.979 258.299V257.186L222.425 253.616C222.793 253.228 223.096 252.889 223.335 252.597C223.576 252.302 223.757 252.022 223.876 251.757C223.996 251.492 224.055 251.21 224.055 250.912C224.055 250.573 223.976 250.282 223.817 250.037C223.658 249.788 223.441 249.597 223.165 249.465C222.89 249.329 222.58 249.261 222.236 249.261C221.871 249.261 221.553 249.336 221.281 249.485C221.009 249.634 220.801 249.844 220.655 250.116C220.509 250.388 220.436 250.706 220.436 251.071H218.969C218.969 250.451 219.112 249.909 219.397 249.445C219.682 248.981 220.073 248.621 220.57 248.366C221.067 248.108 221.633 247.978 222.266 247.978C222.905 247.978 223.469 248.106 223.956 248.361C224.446 248.613 224.829 248.958 225.104 249.395C225.379 249.829 225.517 250.32 225.517 250.867C225.517 251.245 225.446 251.614 225.303 251.975C225.164 252.337 224.92 252.739 224.572 253.184C224.224 253.624 223.741 254.16 223.121 254.789L221.097 256.907V256.982H225.681V258.299H218.979ZM227.908 258.299L232.353 249.51V249.435H227.212V248.117H233.944V249.48L229.514 258.299H227.908Z" fill="black"/>
<path d="M259.979 258.299V257.186L263.425 253.616C263.793 253.228 264.096 252.889 264.335 252.597C264.576 252.302 264.757 252.022 264.876 251.757C264.996 251.492 265.055 251.21 265.055 250.912C265.055 250.573 264.976 250.282 264.817 250.037C264.658 249.788 264.441 249.597 264.165 249.465C263.89 249.329 263.58 249.261 263.236 249.261C262.871 249.261 262.553 249.336 262.281 249.485C262.009 249.634 261.801 249.844 261.655 250.116C261.509 250.388 261.436 250.706 261.436 251.071H259.969C259.969 250.451 260.112 249.909 260.397 249.445C260.682 248.981 261.073 248.621 261.57 248.366C262.067 248.108 262.633 247.978 263.266 247.978C263.905 247.978 264.469 248.106 264.956 248.361C265.446 248.613 265.829 248.958 266.104 249.395C266.379 249.829 266.517 250.32 266.517 250.867C266.517 251.245 266.446 251.614 266.303 251.975C266.164 252.337 265.92 252.739 265.572 253.184C265.224 253.624 264.741 254.16 264.121 254.789L262.097 256.907V256.982H266.681V258.299H259.979ZM272.006 258.439C271.293 258.439 270.663 258.316 270.116 258.071C269.573 257.825 269.147 257.487 268.839 257.056C268.531 256.626 268.378 256.135 268.381 255.585C268.378 255.154 268.466 254.758 268.645 254.397C268.827 254.032 269.074 253.729 269.386 253.487C269.697 253.242 270.045 253.086 270.43 253.019V252.96C269.923 252.837 269.517 252.565 269.212 252.144C268.907 251.724 268.756 251.24 268.759 250.693C268.756 250.172 268.893 249.708 269.172 249.301C269.454 248.89 269.84 248.567 270.33 248.331C270.821 248.096 271.379 247.978 272.006 247.978C272.625 247.978 273.179 248.098 273.666 248.336C274.157 248.572 274.543 248.895 274.825 249.306C275.106 249.713 275.249 250.176 275.252 250.693C275.249 251.24 275.093 251.724 274.785 252.144C274.477 252.565 274.076 252.837 273.582 252.96V253.019C273.963 253.086 274.306 253.242 274.611 253.487C274.919 253.729 275.164 254.032 275.347 254.397C275.532 254.758 275.627 255.154 275.63 255.585C275.627 256.135 275.471 256.626 275.163 257.056C274.854 257.487 274.427 257.825 273.88 258.071C273.336 258.316 272.712 258.439 272.006 258.439ZM272.006 257.181C272.427 257.181 272.791 257.111 273.099 256.972C273.408 256.829 273.646 256.632 273.815 256.38C273.984 256.125 274.071 255.827 274.074 255.485C274.071 255.131 273.978 254.818 273.795 254.546C273.616 254.274 273.373 254.06 273.065 253.904C272.756 253.749 272.403 253.671 272.006 253.671C271.605 253.671 271.248 253.749 270.937 253.904C270.625 254.06 270.38 254.274 270.201 254.546C270.022 254.818 269.934 255.131 269.938 255.485C269.934 255.827 270.015 256.125 270.181 256.38C270.35 256.632 270.59 256.829 270.902 256.972C271.214 257.111 271.581 257.181 272.006 257.181ZM272.006 252.443C272.344 252.443 272.644 252.375 272.906 252.239C273.167 252.103 273.373 251.914 273.522 251.672C273.674 251.43 273.752 251.147 273.756 250.822C273.752 250.504 273.676 250.225 273.527 249.987C273.381 249.748 273.177 249.564 272.915 249.435C272.654 249.302 272.35 249.236 272.006 249.236C271.654 249.236 271.346 249.302 271.081 249.435C270.819 249.564 270.615 249.748 270.469 249.987C270.324 250.225 270.252 250.504 270.256 250.822C270.252 251.147 270.325 251.43 270.474 251.672C270.624 251.914 270.829 252.103 271.091 252.239C271.356 252.375 271.661 252.443 272.006 252.443Z" fill="black"/>
<path d="M304.979 258.299V257.186L308.425 253.616C308.793 253.228 309.096 252.889 309.335 252.597C309.576 252.302 309.757 252.022 309.876 251.757C309.996 251.492 310.055 251.21 310.055 250.912C310.055 250.573 309.976 250.282 309.817 250.037C309.658 249.788 309.441 249.597 309.165 249.465C308.89 249.329 308.58 249.261 308.236 249.261C307.871 249.261 307.553 249.336 307.281 249.485C307.009 249.634 306.801 249.844 306.655 250.116C306.509 250.388 306.436 250.706 306.436 251.071H304.969C304.969 250.451 305.112 249.909 305.397 249.445C305.682 248.981 306.073 248.621 306.57 248.366C307.067 248.108 307.633 247.978 308.266 247.978C308.905 247.978 309.469 248.106 309.956 248.361C310.446 248.613 310.829 248.958 311.104 249.395C311.379 249.829 311.517 250.32 311.517 250.867C311.517 251.245 311.446 251.614 311.303 251.975C311.164 252.337 310.92 252.739 310.572 253.184C310.224 253.624 309.741 254.16 309.121 254.789L307.097 256.907V256.982H311.681V258.299H304.979ZM316.951 247.978C317.405 247.982 317.853 248.064 318.293 248.227C318.734 248.389 319.132 248.654 319.487 249.022C319.844 249.39 320.129 249.887 320.342 250.514C320.557 251.137 320.666 251.912 320.67 252.841C320.67 253.732 320.58 254.526 320.401 255.222C320.222 255.915 319.965 256.5 319.631 256.977C319.299 257.454 318.897 257.817 318.423 258.066C317.949 258.314 317.415 258.439 316.822 258.439C316.215 258.439 315.677 258.319 315.206 258.081C314.735 257.842 314.353 257.512 314.058 257.091C313.763 256.667 313.579 256.18 313.506 255.63H315.022C315.121 256.067 315.324 256.422 315.629 256.693C315.937 256.962 316.335 257.096 316.822 257.096C317.567 257.096 318.149 256.771 318.567 256.122C318.984 255.469 319.195 254.557 319.198 253.387H319.119C318.946 253.672 318.731 253.918 318.472 254.123C318.217 254.329 317.93 254.488 317.612 254.6C317.294 254.713 316.954 254.769 316.593 254.769C316.006 254.769 315.473 254.625 314.992 254.337C314.512 254.049 314.129 253.653 313.844 253.149C313.559 252.645 313.416 252.07 313.416 251.424C313.416 250.781 313.562 250.197 313.854 249.674C314.149 249.15 314.56 248.736 315.087 248.431C315.617 248.122 316.238 247.972 316.951 247.978ZM316.956 249.271C316.568 249.271 316.219 249.367 315.907 249.559C315.599 249.748 315.355 250.005 315.176 250.33C314.997 250.651 314.908 251.009 314.908 251.404C314.908 251.798 314.994 252.156 315.166 252.478C315.342 252.796 315.58 253.049 315.882 253.238C316.187 253.424 316.535 253.517 316.926 253.517C317.218 253.517 317.49 253.46 317.741 253.348C317.993 253.235 318.214 253.079 318.403 252.88C318.592 252.678 318.739 252.449 318.845 252.194C318.951 251.939 319.004 251.671 319.004 251.389C319.004 251.014 318.915 250.666 318.736 250.345C318.56 250.023 318.318 249.765 318.01 249.569C317.702 249.37 317.35 249.271 316.956 249.271Z" fill="black"/>
<path d="M35.5241 295.439C34.8414 295.439 34.2315 295.321 33.6946 295.086C33.161 294.85 32.7384 294.524 32.4268 294.106C32.1186 293.685 31.9529 293.198 31.9297 292.644H33.4908C33.5107 292.946 33.6117 293.208 33.794 293.43C33.9796 293.649 34.2216 293.818 34.5199 293.937C34.8182 294.056 35.1496 294.116 35.5142 294.116C35.9152 294.116 36.2699 294.046 36.5781 293.907C36.8897 293.768 37.1333 293.574 37.3089 293.326C37.4846 293.074 37.5724 292.784 37.5724 292.456C37.5724 292.114 37.4846 291.814 37.3089 291.556C37.1366 291.294 36.883 291.088 36.5483 290.939C36.2169 290.79 35.8158 290.716 35.3452 290.716H34.4851V289.463H35.3452C35.723 289.463 36.0545 289.395 36.3395 289.259C36.6278 289.123 36.8532 288.934 37.0156 288.692C37.178 288.447 37.2592 288.16 37.2592 287.832C37.2592 287.517 37.188 287.244 37.0455 287.012C36.9063 286.776 36.7074 286.592 36.4489 286.46C36.1937 286.327 35.892 286.261 35.544 286.261C35.2126 286.261 34.9027 286.322 34.6143 286.445C34.3293 286.564 34.0973 286.737 33.9183 286.962C33.7393 287.184 33.6432 287.451 33.63 287.762H32.1435C32.16 287.212 32.3224 286.728 32.6307 286.311C32.9422 285.893 33.3532 285.567 33.8636 285.331C34.3741 285.096 34.9408 284.978 35.5639 284.978C36.2169 284.978 36.7803 285.106 37.2543 285.361C37.7315 285.613 38.0994 285.949 38.358 286.37C38.6198 286.791 38.7491 287.252 38.7457 287.752C38.7491 288.323 38.59 288.806 38.2685 289.204C37.9503 289.602 37.526 289.869 36.9957 290.005V290.084C37.6719 290.187 38.1955 290.455 38.5668 290.89C38.9413 291.324 39.1269 291.862 39.1236 292.505C39.1269 293.065 38.9711 293.568 38.6562 294.012C38.3447 294.456 37.9188 294.805 37.3786 295.061C36.8383 295.313 36.2202 295.439 35.5241 295.439ZM44.5476 295.468C43.7621 295.465 43.0909 295.258 42.5341 294.847C41.9773 294.436 41.5514 293.838 41.2564 293.052C40.9614 292.267 40.8139 291.32 40.8139 290.213C40.8139 289.11 40.9614 288.167 41.2564 287.385C41.5547 286.602 41.9822 286.006 42.5391 285.595C43.0992 285.184 43.7687 284.978 44.5476 284.978C45.3265 284.978 45.9943 285.185 46.5511 285.6C47.108 286.011 47.5339 286.607 47.8288 287.39C48.1271 288.168 48.2763 289.11 48.2763 290.213C48.2763 291.324 48.1288 292.272 47.8338 293.057C47.5388 293.839 47.1129 294.438 46.5561 294.852C45.9993 295.263 45.3298 295.468 44.5476 295.468ZM44.5476 294.141C45.237 294.141 45.7756 293.805 46.1634 293.132C46.5545 292.459 46.75 291.486 46.75 290.213C46.75 289.368 46.6605 288.654 46.4815 288.071C46.3059 287.484 46.0523 287.04 45.7209 286.738C45.3928 286.433 45.0017 286.281 44.5476 286.281C43.8615 286.281 43.3229 286.619 42.9318 287.295C42.5407 287.971 42.3435 288.944 42.3402 290.213C42.3402 291.062 42.428 291.779 42.6037 292.366C42.7827 292.949 43.0362 293.392 43.3643 293.693C43.6925 293.992 44.0869 294.141 44.5476 294.141Z" fill="black"/>
<path d="M83.5241 295.439C82.8414 295.439 82.2315 295.321 81.6946 295.086C81.161 294.85 80.7384 294.524 80.4268 294.106C80.1186 293.685 79.9529 293.198 79.9297 292.644H81.4908C81.5107 292.946 81.6117 293.208 81.794 293.43C81.9796 293.649 82.2216 293.818 82.5199 293.937C82.8182 294.056 83.1496 294.116 83.5142 294.116C83.9152 294.116 84.2699 294.046 84.5781 293.907C84.8897 293.768 85.1333 293.574 85.3089 293.326C85.4846 293.074 85.5724 292.784 85.5724 292.456C85.5724 292.114 85.4846 291.814 85.3089 291.556C85.1366 291.294 84.883 291.088 84.5483 290.939C84.2169 290.79 83.8158 290.716 83.3452 290.716H82.4851V289.463H83.3452C83.723 289.463 84.0545 289.395 84.3395 289.259C84.6278 289.123 84.8532 288.934 85.0156 288.692C85.178 288.447 85.2592 288.16 85.2592 287.832C85.2592 287.517 85.188 287.244 85.0455 287.012C84.9063 286.776 84.7074 286.592 84.4489 286.46C84.1937 286.327 83.892 286.261 83.544 286.261C83.2126 286.261 82.9027 286.322 82.6143 286.445C82.3293 286.564 82.0973 286.737 81.9183 286.962C81.7393 287.184 81.6432 287.451 81.63 287.762H80.1435C80.16 287.212 80.3224 286.728 80.6307 286.311C80.9422 285.893 81.3532 285.567 81.8636 285.331C82.3741 285.096 82.9408 284.978 83.5639 284.978C84.2169 284.978 84.7803 285.106 85.2543 285.361C85.7315 285.613 86.0994 285.949 86.358 286.37C86.6198 286.791 86.7491 287.252 86.7457 287.752C86.7491 288.323 86.59 288.806 86.2685 289.204C85.9503 289.602 85.526 289.869 84.9957 290.005V290.084C85.6719 290.187 86.1955 290.455 86.5668 290.89C86.9413 291.324 87.1269 291.862 87.1236 292.505C87.1269 293.065 86.9711 293.568 86.6562 294.012C86.3447 294.456 85.9188 294.805 85.3786 295.061C84.8383 295.313 84.2202 295.439 83.5241 295.439ZM92.8658 285.117V295.299H91.3246V286.659H91.2649L88.8288 288.25V286.778L91.3693 285.117H92.8658Z" fill="black"/>
</g>
<defs>
<filter id="filter0_d_218_10760" x="0" y="0" width="352" height="322.299" filterUnits="userSpaceOnUse" color-interpolation-filters="sRGB">
<feFlood flood-opacity="0" result="BackgroundImageFix"/>
<feColorMatrix in="SourceAlpha" type="matrix" values="0 0 0 0 0 0 0 0 0 0 0 0 0 0 0 0 0 0 127 0" result="hardAlpha"/>
<feOffset dy="1"/>
<feGaussianBlur stdDeviation="2"/>
<feComposite in2="hardAlpha" operator="out"/>
<feColorMatrix type="matrix" values="0 0 0 0 0 0 0 0 0 0 0 0 0 0 0 0 0 0 0.25 0"/>
<feBlend mode="normal" in2="BackgroundImageFix" result="effect1_dropShadow_218_10760"/>
<feBlend mode="normal" in="SourceGraphic" in2="effect1_dropShadow_218_10760" result="shape"/>
</filter>
</defs>
</svg>
